<svg id="css_1_" data-name="css (1)" xmlns="http://www.w3.org/2000/svg" width="114" height="114" viewBox="0 0 114 114">
  <path id="Caminho_308" data-name="Caminho 308" d="M114,57A57,57,0,1,1,57,0,56.906,56.906,0,0,1,114,57Z" fill="#fff"/>
  <path id="Caminho_309" data-name="Caminho 309" d="M152.833,119.474l-6.507,75.463a57.009,57.009,0,0,1-69.81,0l-6.507-75.463Z" transform="translate(-54.42 -92.872)" fill="#006bc0"/>
  <path id="Caminho_310" data-name="Caminho 310" d="M256,151.338v78.811l27.225-7.686,6.073-71.125Z" transform="translate(-198.998 -117.642)" fill="#0096dc"/>
  <path id="Caminho_311" data-name="Caminho 311" d="M189.893,216.685H170.258l20.518-10.442.887-10.5H140.013l.9,10.7H161.65l-19.893,9.947.926,10.963h35.486L177,240.415l-11.167,3.025L154.2,240.183l-.291-8.143H143.078l1.356,16.053,21.4,6.049,21.4-6.049,2.652-31.41Z" transform="translate(-108.838 -152.162)" fill="#fff"/>
  <g id="Grupo_92" data-name="Grupo 92" transform="translate(32.939 3.49)">
    <path id="Caminho_312" data-name="Caminho 312" d="M151.815,27.153V19.709h10.7V15.676h-14.58v15.51h14.58V27.153Z" transform="translate(-147.937 -15.676)" fill="#222123"/>
    <path id="Caminho_313" data-name="Caminho 313" d="M227.8,21.744V19.883h10.644V15.676h-14.58v9.616h10.45v1.861h-10.45v4.033h14.58V21.744Z" transform="translate(-206.96 -15.676)" fill="#222123"/>
    <path id="Caminho_314" data-name="Caminho 314" d="M302.512,21.744V19.883h10.644V15.676H298.576v9.616h10.45v1.861h-10.45v4.033h14.579V21.744Z" transform="translate(-265.035 -15.676)" fill="#222123"/>
  </g>
</svg>
