<svg id="html-5_1_" data-name="html-5 (1)" xmlns="http://www.w3.org/2000/svg" width="114" height="114" viewBox="0 0 114 114">
  <path id="Caminho_300" data-name="Caminho 300" d="M114,57A57,57,0,1,1,57,0,56.906,56.906,0,0,1,114,57Z" fill="#fff"/>
  <path id="Caminho_301" data-name="Caminho 301" d="M155.658,119.474,148.995,190.2a62.693,62.693,0,0,1-71.21.187l-6.679-70.914Z" transform="translate(-56.267 -87.386)" fill="#e64c18"/>
  <path id="Caminho_302" data-name="Caminho 302" d="M256.546,151.249V224.9l25.441-7.182,5.675-66.465Z" transform="translate(-197.951 -112.53)" fill="#f36518"/>
  <path id="Caminho_303" data-name="Caminho 303" d="M140.9,195.528l2.495,29.541h33.16l-1.085,12.2L165.036,240.1l-10.87-3.045-.273-7.608H143.768l1.268,15,20,5.652,20-5.652,2.479-29.35H152.594l-.867-9.566h0l36.613-.192.828-9.809Z" transform="translate(-107.907 -147.569)" fill="#fff"/>
  <path id="Caminho_304" data-name="Caminho 304" d="M115.664,16.8v5.075h-4.849V16.8H106.3V31.345h4.511V26.608h4.849v4.737h4.511V16.8Z" transform="translate(-82.412 -13.291)"/>
  <path id="Caminho_305" data-name="Caminho 305" d="M196.917,16.8H183.045v5.075h4.511v9.586h4.85V21.871h4.511Z" transform="translate(-141.907 -13.291)"/>
  <path id="Caminho_306" data-name="Caminho 306" d="M354.894,27.261V17.337h-4.85V31.886h11.842V27.261Z" transform="translate(-271.495 -13.719)"/>
  <path id="Caminho_307" data-name="Caminho 307" d="M270.865,17.337l-3.383,5.188L264.1,17.337h-4.85V31.886h4.85V24.668l3.384,5.188,3.383-5.188v7.218h4.85V17.337Z" transform="translate(-200.865 -13.719)"/>
</svg>
