<svg id="javascript" xmlns="http://www.w3.org/2000/svg" width="114" height="114" viewBox="0 0 114 114">
  <path id="Caminho_324" data-name="Caminho 324" d="M114,57a56.712,56.712,0,1,1-4-21.027A56.83,56.83,0,0,1,114,57Z" fill="#e4ba42"/>
  <g id="Grupo_95" data-name="Grupo 95" transform="translate(16.469 10.067)">
    <path id="Caminho_325" data-name="Caminho 325" d="M317.92,191.837c-1.586-4.6-8.092-4.6-9.36-.793s3.015,6.029,9.678,8.25,10.789,8.092,10,13.327-3.015,12.058-16.183,12.058c-8.23,0-12.8-5.144-15.077-9l7.461-4.484s2.539,5.394,7.3,5.394S318.4,215,318.4,211.352c0-4.442-15.39-6.029-17.769-13.644s.793-18.4,11.9-17.611c6.941.5,10.846,3.9,12.8,6.391Z" transform="translate(-247.32 -150.032)" fill="#fff"/>
    <path id="Caminho_326" data-name="Caminho 326" d="M172.016,183.8v30.462c0,3.649-3.173,5.553-6.346,4.918s-4.6-4.442-4.6-4.442l-7.3,4.918s1.586,7.3,11.582,7.933,15.707-5.394,15.707-10.471V183.8Z" transform="translate(-136.002 -152.947)" fill="#fff"/>
    <path id="Caminho_327" data-name="Caminho 327" d="M73.968,45.213v87.01a57.03,57.03,0,0,0,7.689,6.517H147.34a57.15,57.15,0,0,0,6.242-5.1H79.072V50.317h83.315V123.07a56.691,56.691,0,0,0,5.107-9.9V45.213Z" transform="translate(-73.968 -45.213)" fill="#fff"/>
  </g>
  <circle id="Elipse_15" data-name="Elipse 15" cx="9.043" cy="9.043" r="9.043" transform="translate(10.518 66.469)" fill="#3f4a43"/>
</svg>
