<svg id="nodejs" xmlns="http://www.w3.org/2000/svg" width="114" height="114" viewBox="0 0 114 114">
  <path id="Caminho_328" data-name="Caminho 328" d="M114,57a57.57,57.57,0,1,1-.079-3Q114,55.493,114,57Z" fill="#fff"/>
  <path id="Caminho_329" data-name="Caminho 329" d="M153.6,198.97V184.137l-12.845-7.416-12.845,7.416V198.97l12.845,7.416Z" transform="translate(-99.439 -137.385)" fill="#3b8739"/>
  <path id="Caminho_330" data-name="Caminho 330" d="M425.411,196.72l8.371,4.834-8.371,4.834-12.844-7.416V184.139l12.844-7.416,7.784,4.5a56.725,56.725,0,0,1,1.451,10.171l-4.76,2.748v-5.167l-4.475-2.582-4.475,2.582v5.167Z" transform="translate(-320.725 -137.386)" fill="#333"/>
  <path id="Caminho_331" data-name="Caminho 331" d="M464,234.679V231.8l-2.493-1.44-2.494,1.44v2.879l2.494,1.44Z" transform="translate(-356.821 -179.071)" fill="#66a060"/>
  <path id="Caminho_332" data-name="Caminho 332" d="M22.438,184.14V203.7l-8.567-4.887V188.785l-4.277-2.471-4.278,2.47v10.027L.452,201.587a57.569,57.569,0,0,1,1.032-20.181l8.11-4.683Z" transform="translate(0 -137.385)" fill="#333"/>
  <rect id="Retângulo_39" data-name="Retângulo 39" width="25.69" height="14.832" transform="matrix(0.5, 0.866, -0.866, 0.5, 41.317, 39.335)" fill="#6da75d"/>
  <path id="Caminho_333" data-name="Caminho 333" d="M127.912,224.832l4.411-7.193L127.912,210Z" transform="translate(-99.433 -163.248)" fill="#55a344"/>
  <path id="Caminho_334" data-name="Caminho 334" d="M194.116,191.553l4.282-7.416-12.845-7.416Z" transform="translate(-144.243 -137.378)" fill="#639d57"/>
  <path id="Caminho_335" data-name="Caminho 335" d="M286.736,99.579v19.678l-4.305-2.487-12.846,7.416v14.833l12.846,7.416,12.844-7.416V104.15Zm-.023,34.495-4.282,2.473-4.282-2.473V129.13l4.282-2.473,4.282,2.473Z" transform="translate(-209.574 -77.42)" fill="#333"/>
  <g id="Grupo_96" data-name="Grupo 96" transform="translate(43.345 66.445)">
    <path id="Caminho_336" data-name="Caminho 336" d="M251.378,344.275a2.5,2.5,0,0,0-2.571-2.168c-2.319,0-3.907.3-3.907,1.588s4.513,1.286,6.227,1.79,3.227,1.815,2.47,4.134-3.076,2.571-6.656,2.571a4.16,4.16,0,0,1-4.387-4.134h2.017s-.252,1.815,2.117,2.117,4.636.473,4.941-1.361c.4-2.42-7.664-1.21-8.37-3.58-.6-2-.252-4.639,3.782-5.042s6.252,1.377,6.252,4.034Z" transform="translate(-231.895 -330.878)" fill="#66a060"/>
    <path id="Caminho_337" data-name="Caminho 337" d="M194.722,321.449l4.459,2.574a3.36,3.36,0,0,0,5.041-2.91V308.3H202.4v12.307a1.835,1.835,0,0,1-2.753,1.589l-3.112-1.8V307.265l11.375-6.567,11.375,6.567V320.4l-11.375,6.567-3.277-1.892-2.14.863,5.416,3.127,13.192-7.617V306.216L207.914,298.6l-13.192,7.617v15.232h0Z" transform="translate(-194.722 -298.6)" fill="#66a060"/>
  </g>
</svg>
