<svg id="react" xmlns="http://www.w3.org/2000/svg" width="114" height="114" viewBox="0 0 114 114">
  <path id="Caminho_317" data-name="Caminho 317" d="M114,57A57,57,0,1,1,57,0,56.922,56.922,0,0,1,114,57Z" fill="#5adafd"/>
  <g id="Grupo_93" data-name="Grupo 93" transform="translate(1.68 15.132)">
    <path id="Caminho_318" data-name="Caminho 318" d="M169.37,141.924c-.268-1.794-.621-3.641-1.059-5.53q-.579-2.488-1.345-5.067A110.548,110.548,0,0,0,161.72,117.4q-1.406-3.106-3.025-6.228-1.424-2.746-3-5.486t-3.25-5.344q-1.888-2.956-3.881-5.73a110.017,110.017,0,0,0-9.441-11.512q-1.846-1.951-3.715-3.695-2.125-1.989-4.262-3.685c-9.281-7.368-17.589-9.581-23.4-6.228S99.7,81.143,101.438,92.866c.265,1.794.621,3.641,1.061,5.53q.572,2.488,1.342,5.067a110.053,110.053,0,0,0,5.249,13.931q1.4,3.106,3.022,6.226,1.424,2.75,3,5.488t3.25,5.344q1.891,2.959,3.881,5.732a109.958,109.958,0,0,0,9.441,11.509q1.846,1.951,3.718,3.7,2.125,1.989,4.26,3.683a42.571,42.571,0,0,0,9.767,6.014,56.758,56.758,0,0,0,19.88-9.436A38.9,38.9,0,0,0,169.37,141.924Zm-5.226,12.882c-.677,2.927-1.922,4.932-3.7,5.958s-4.137,1.1-7.01.228a33.81,33.81,0,0,1-10.511-6.021q-1.9-1.508-3.8-3.273-1.864-1.731-3.718-3.692c-2.117-2.24-4.211-4.693-6.254-7.324q-2.045-2.635-4.016-5.5c-1.9-2.762-3.736-5.67-5.481-8.694s-3.348-6.068-4.788-9.094q-1.494-3.13-2.752-6.226c-1.259-3.085-2.336-6.126-3.218-9.078-.512-1.722-.961-3.411-1.335-5.065-.386-1.684-.7-3.332-.938-4.93a33.785,33.785,0,0,1,.042-12.112c.677-2.927,1.924-4.932,3.7-5.958a6.651,6.651,0,0,1,3.376-.833,12.51,12.51,0,0,1,3.634.607,33.794,33.794,0,0,1,10.511,6.019q1.9,1.508,3.8,3.278,1.867,1.727,3.715,3.688c2.119,2.24,4.213,4.693,6.258,7.326q2.045,2.635,4.016,5.5c1.9,2.762,3.734,5.67,5.479,8.692s3.348,6.068,4.788,9.094q1.494,3.134,2.752,6.228c1.259,3.085,2.336,6.123,3.218,9.076q.768,2.582,1.338,5.065c.384,1.684.7,3.332.935,4.93A33.77,33.77,0,0,1,164.144,154.806Z" transform="translate(-80.084 -67.961)" fill="#fff"/>
    <path id="Caminho_319" data-name="Caminho 319" d="M101.089,191.038q-2.53-1-5.321-1.85-2.443-.743-5.06-1.37a110.124,110.124,0,0,0-14.687-2.42c-2.259-.226-4.565-.391-6.9-.5-2.061-.1-4.151-.144-6.256-.144s-4.195.049-6.258.144c-2.338.1-4.644.272-6.9.5a110.088,110.088,0,0,0-14.685,2.42q-2.614.625-5.06,1.37-2.785.848-5.321,1.85c-11.021,4.35-17.093,10.441-17.093,17.149s6.072,12.8,17.093,17.151q2.53,1,5.318,1.85,2.443.743,5.06,1.368a110.09,110.09,0,0,0,14.69,2.422c2.259.223,4.565.389,6.9.5,2.061.1,4.151.142,6.256.142s4.192-.047,6.254-.142q3.507-.161,6.9-.5a109.8,109.8,0,0,0,14.69-2.422q2.614-.625,5.06-1.37c1.854-.565,3.632-1.182,5.318-1.847,11.023-4.353,17.093-10.444,17.093-17.151S112.112,195.389,101.089,191.038Zm8.543,23.333a33.759,33.759,0,0,1-10.467,6.093q-2.258.89-4.739,1.654-2.432.75-5.053,1.373c-3,.714-6.17,1.3-9.471,1.754q-3.3.457-6.766.728c-3.343.268-6.779.4-10.272.4s-6.928-.135-10.272-.4c-2.306-.181-4.567-.426-6.768-.731-3.3-.454-6.472-1.04-9.471-1.754q-2.617-.621-5.053-1.373-2.478-.761-4.739-1.654a33.762,33.762,0,0,1-10.467-6.093c-2.2-2.05-3.311-4.13-3.311-6.184S13.9,204.053,16.094,202a33.759,33.759,0,0,1,10.467-6.093q2.258-.89,4.739-1.654,2.432-.75,5.053-1.373c3-.714,6.17-1.3,9.471-1.754,2.2-.3,4.462-.549,6.768-.731,3.343-.265,6.779-.4,10.272-.4s6.928.135,10.272.4q3.458.269,6.766.728c3.3.454,6.472,1.04,9.471,1.754q2.617.621,5.053,1.373,2.478.761,4.739,1.654A33.761,33.761,0,0,1,109.632,202c2.2,2.05,3.311,4.13,3.311,6.184S111.828,212.321,109.632,214.371Z" transform="translate(-7.544 -158.753)" fill="#fff"/>
    <path id="Caminho_320" data-name="Caminho 320" d="M163.063,69.487c-5.809-3.353-14.117-1.14-23.4,6.228q-2.129,1.693-4.26,3.685-1.867,1.741-3.718,3.7a110.248,110.248,0,0,0-9.443,11.509q-1.986,2.771-3.878,5.73-1.672,2.607-3.25,5.344t-3,5.488q-1.616,3.116-3.022,6.226a110.193,110.193,0,0,0-5.249,13.931q-.768,2.579-1.345,5.069-.656,2.834-1.059,5.528a38.88,38.88,0,0,0,.058,13.727,56.725,56.725,0,0,0,19.88,9.439,42.564,42.564,0,0,0,9.767-6.014q2.132-1.693,4.262-3.683,1.867-1.741,3.715-3.695a110.3,110.3,0,0,0,9.441-11.512q1.986-2.771,3.881-5.733,1.672-2.607,3.25-5.344t3-5.486q1.616-3.116,3.025-6.228a110.382,110.382,0,0,0,5.246-13.931q.764-2.575,1.342-5.067c.44-1.889.793-3.736,1.061-5.53C171.11,81.143,168.872,72.842,163.063,69.487Zm-1.149,32.6c-.882,2.952-1.959,5.991-3.218,9.076q-1.256,3.088-2.752,6.228c-1.44,3.027-3.041,6.07-4.788,9.094s-3.581,5.93-5.479,8.692q-1.968,2.862-4.018,5.5c-2.043,2.631-4.137,5.083-6.256,7.324q-1.846,1.954-3.715,3.69-1.9,1.766-3.8,3.276a33.812,33.812,0,0,1-10.511,6.021c-2.873.875-5.232.8-7.01-.228s-3.025-3.031-3.7-5.958a33.78,33.78,0,0,1-.042-12.112c.237-1.6.551-3.245.935-4.93q.565-2.481,1.338-5.065c.882-2.952,1.959-5.993,3.218-9.078q1.256-3.088,2.752-6.226c1.44-3.027,3.041-6.07,4.788-9.094s3.581-5.933,5.481-8.694q1.965-2.858,4.013-5.5c2.045-2.634,4.139-5.086,6.256-7.326q1.85-1.958,3.718-3.69,1.9-1.766,3.8-3.276A33.805,33.805,0,0,1,153.433,73.8a12.51,12.51,0,0,1,3.634-.607,6.645,6.645,0,0,1,3.376.833c1.78,1.026,3.025,3.031,3.7,5.958a33.78,33.78,0,0,1,.042,12.112c-.237,1.6-.551,3.245-.938,4.93C162.874,98.68,162.425,100.369,161.914,102.091Z" transform="translate(-80.085 -67.961)" fill="#fff"/>
    <circle id="Elipse_14" data-name="Elipse 14" cx="10.397" cy="10.397" r="10.397" transform="translate(44.923 39.037)" fill="#fff"/>
  </g>
</svg>
