<svg id="sass" xmlns="http://www.w3.org/2000/svg" width="114" height="114.423" viewBox="0 0 114 114.423">
  <path id="Caminho_315" data-name="Caminho 315" d="M114,57.211q0,2.652-.237,5.24-.181,2.049-.512,4.049A57.268,57.268,0,1,1,114,57.211Z" fill="#fff"/>
  <path id="Caminho_316" data-name="Caminho 316" d="M118.043,98.521c-1.728.656-1.658.668-2.573-1a14.557,14.557,0,0,1-1.842-6.8,15.825,15.825,0,0,1,1.242-5.938c.572-1.515-.172-2.05-1.479-2.188a14.192,14.192,0,0,0-2.887.009c-2.48.255-2.724.469-3.382,2.886a24.679,24.679,0,0,1-1.351,4.241c-1.6,3.351-3.419,6.578-5.285,9.782A8.391,8.391,0,0,1,99.4,101.2a12.72,12.72,0,0,1-1.975-6.63,16.872,16.872,0,0,1,1.375-6.62,1.043,1.043,0,0,0-.575-1.476,2.486,2.486,0,0,0-.882-.29,13.384,13.384,0,0,0-4.729.329,1.647,1.647,0,0,0-1.31,1.373,21.016,21.016,0,0,1-1.412,4.472q-2.652,5.976-5.29,11.961c-1.535,3.463-3.047,6.935-4.866,10.261-.128.236-.235.645-.556.563s-.212-.483-.226-.759a19.762,19.762,0,0,1,.882-5.7c.719-2.963,1.5-5.913,2.268-8.867a1.515,1.515,0,0,0-.849-1.824,2.576,2.576,0,0,0-3.1.205,19.131,19.131,0,0,0,.163-3.32c-.116-2.358-1.205-3.893-3.1-4.248a6.358,6.358,0,0,0-3.931.733A19.865,19.865,0,0,0,64.136,97.3a2.6,2.6,0,0,1-.789.74q-5.488,3-10.965,6.022a.663.663,0,0,1-.947-.15,51.051,51.051,0,0,0-6.083-5.266,67.572,67.572,0,0,1-8.553-7.3,14.13,14.13,0,0,1-3.352-5.588A12.853,12.853,0,0,1,34.881,75.8a29.563,29.563,0,0,1,8.23-9.1A79.24,79.24,0,0,1,59.99,56.8c6.718-2.954,13.687-4.857,21.109-4.57A18.534,18.534,0,0,1,89.513,54.3a6.264,6.264,0,0,1,3.429,4.67,11.461,11.461,0,0,1-1.323,7.113c-2.51,4.972-6.5,8.493-11.214,11.251a37.179,37.179,0,0,1-12.645,4.516,23.255,23.255,0,0,1-7.455.3,11.5,11.5,0,0,1-7.457-3.708.7.7,0,0,0-.9-.264c-.393.192-.363.542-.326.878a3.05,3.05,0,0,0,.172.684,8.06,8.06,0,0,0,2.649,3.421c2.982,2.436,6.515,3.15,10.226,3.223a42.241,42.241,0,0,0,10.744-1.24C83.4,83.231,90.083,79.3,94.963,72.566c2.917-4.026,4.764-8.463,4.6-13.539a11.869,11.869,0,0,0-3.522-8.376,19.716,19.716,0,0,0-9.93-4.953,36.789,36.789,0,0,0-12.491-.546,51.368,51.368,0,0,0-10.714,2.393A95.405,95.405,0,0,0,47.518,54.4,66.017,66.017,0,0,0,33.554,64.482C29.865,68.057,26.695,72,24.908,76.9a11.426,11.426,0,0,0-.8,6.52,18.422,18.422,0,0,0,3.973,7.725,51.585,51.585,0,0,0,9.951,8.766c2.9,2.088,5.927,3.988,8.709,6.232.789.635.784.635-.144,1.123-1.084.567-2.18,1.114-3.245,1.719a47.445,47.445,0,0,0-11.837,8.755,13.47,13.47,0,0,0-3.329,6.1A57.326,57.326,0,0,0,37.937,135c6.329-.5,11.175-3.8,14.754-9.27a19.07,19.07,0,0,0,2.843-8.783,20.607,20.607,0,0,0-.828-8.122c-.142-.467-.67-.932-.463-1.343.193-.378.775-.57,1.2-.817,1.726-1.007,3.457-2,5.234-3.024a1.537,1.537,0,0,1-.137.85c-1.019,3.753-1.728,7.536-.954,11.435a15.956,15.956,0,0,0,2.81,6.725,4.3,4.3,0,0,0,6.5-.056,31.176,31.176,0,0,0,3.18-5.829c.512-1.1.982-2.223,1.47-3.337a37.347,37.347,0,0,0-.037,3.951,7.707,7.707,0,0,0,.919,3.687,2.672,2.672,0,0,0,3.7,1.032,8.239,8.239,0,0,0,3.261-3.407,158.786,158.786,0,0,0,9.037-18.235c.549-1.338,1.112-2.674,1.733-4.161.1.488.158.787.216,1.086a28.536,28.536,0,0,0,3.066,8.509,1.21,1.21,0,0,1-.119,1.515c-1.358,1.856-2.847,3.6-4.315,5.368a46.175,46.175,0,0,0-3.594,4.54c-.935,1.471-.4,2.977,1.158,3.311a6.626,6.626,0,0,0,1.475.126,15.482,15.482,0,0,0,7.567-2.183c3.147-1.8,5.013-4.439,4.927-8.2a13.014,13.014,0,0,0-1.186-4.918.834.834,0,0,1,.067-.927,91.084,91.084,0,0,0,5.876-9.8,8.535,8.535,0,0,1,1.042-1.838c.067.236.121.383.151.535a26.57,26.57,0,0,0,2.745,8.042c.391.684.2,1.032-.344,1.49a21.417,21.417,0,0,0-4.657,5.553,10.5,10.5,0,0,0-1.607,5.341,2.846,2.846,0,0,0,3.731,2.91,16.572,16.572,0,0,0,6-2.741c3.943-2.9,5.1-5.955,3.864-10.221-.484-1.679-.475-1.651,1.2-2.16a24.32,24.32,0,0,1,11.13-.546q.635.1,1.256.24.328-2,.512-4.049A23.636,23.636,0,0,0,118.043,98.521Zm-77.51,30.042a7.917,7.917,0,0,1-3.3.451,2.544,2.544,0,0,1-2.391-2.608A9.41,9.41,0,0,1,36,121.6c1.37-2.756,3.67-4.626,6.018-6.461a69.107,69.107,0,0,1,7.213-4.794c.751-.448.763-.444.935.455a13.354,13.354,0,0,1,.349,3.358C50.714,120.446,46.165,126.562,40.533,128.563ZM74.675,96.854a38.88,38.88,0,0,1-2.177,7.669c-1.252,3.4-2.47,6.826-4.045,10.1a7.942,7.942,0,0,1-1.323,2.118c-.551.582-1.04.514-1.421-.2a10.136,10.136,0,0,1-.772-4.052,23.4,23.4,0,0,1,5.01-14.35,6.268,6.268,0,0,1,3.433-2.464C74.373,95.425,74.831,95.827,74.675,96.854ZM96.355,113.5a10.464,10.464,0,0,1-4.464,4.131c-.2.1-.458.278-.64.042s.1-.369.23-.509c1.863-2.043,3.7-4.1,5.362-6.319.026-.035.088-.04.23-.1A5.526,5.526,0,0,1,96.355,113.5Zm12.866-.079c-.277.131-.6.376-.868.166-.3-.231-.179-.64-.088-.953a16.739,16.739,0,0,1,1.779-4.066,15.024,15.024,0,0,1,2.38-2.882c.363-.35.526-.308.649.2a6.878,6.878,0,0,1,.149,1.557A6.292,6.292,0,0,1,109.22,113.422Z" transform="translate(-18.566 -34.835)" fill="#cd6699"/>
</svg>
