<svg id="typescript" xmlns="http://www.w3.org/2000/svg" width="114" height="113.906" viewBox="0 0 114 113.906">
  <path id="Caminho_321" data-name="Caminho 321" d="M114,56.953A57,57,0,1,1,57,0,56.952,56.952,0,0,1,114,56.953Z" fill="#0078cf"/>
  <g id="Grupo_94" data-name="Grupo 94" transform="translate(18.583 35.967)">
    <path id="Caminho_322" data-name="Caminho 322" d="M356.515,197.548A56.957,56.957,0,0,1,338.8,225.72c-.825.044-1.688.065-2.583.065-11.825,0-18.4-7.39-21.663-12.934l10.721-6.441s3.647,7.75,10.484,7.75,9.575-2.28,9.575-7.522c0-6.383-22.112-8.662-25.531-19.6s1.139-26.445,17.1-25.3c9.973.711,15.582,5.609,18.388,9.182L344.653,178.6c-2.28-6.609-11.625-6.609-13.45-1.139s4.331,8.662,13.906,11.853A22.767,22.767,0,0,1,356.515,197.548Z" transform="translate(-263.065 -161.671)" fill="#fff"/>
    <path id="Caminho_323" data-name="Caminho 323" d="M131.569,169.786H83.106v11.439h17.76v49.667h12.943V181.225h17.76Z" transform="translate(-83.106 -167.981)" fill="#fff"/>
  </g>
</svg>
