<svg id="experience" xmlns="http://www.w3.org/2000/svg" width="113.591" height="113.591" viewBox="0 0 113.591 113.591">
  <ellipse id="Elipse_16" data-name="Elipse 16" cx="56.796" cy="56.795" rx="56.796" ry="56.795" transform="translate(0 0)" fill="#592b49"/>
  <g id="Grupo_97" data-name="Grupo 97" transform="translate(19.902 33.819)">
    <path id="Caminho_339" data-name="Caminho 339" d="M88.515,196.962l15.589-23.8L89.978,151.347h10.766L109.891,166l8.961-14.655h10.673L115.336,173.5l15.589,23.461H119.817L109.7,181.186,99.561,196.962Z" transform="translate(-88.515 -151.347)" fill="#da2286"/>
    <path id="Caminho_340" data-name="Caminho 340" d="M310.082,196.962h-8.121v-4.854a13.118,13.118,0,0,1-4.776,4.216,12.258,12.258,0,0,1-5.554,1.385,12.586,12.586,0,0,1-9.755-4.59q-4.061-4.589-4.06-12.8,0-8.4,3.951-12.773a12.884,12.884,0,0,1,9.988-4.372,12.376,12.376,0,0,1,9.584,4.6V151.347h8.743v45.615Zm-23.336-17.238q0,5.29,1.463,7.654a6.606,6.606,0,0,0,5.912,3.423,6.436,6.436,0,0,0,5.134-2.567q2.115-2.567,2.116-7.67,0-5.694-2.054-8.2a6.5,6.5,0,0,0-5.258-2.5,6.569,6.569,0,0,0-5.212,2.474Q286.746,174.808,286.746,179.724Z" transform="translate(-235.886 -151.347)" fill="#da2286"/>
  </g>
</svg>
