<svg xmlns="http://www.w3.org/2000/svg" width="723.185" height="410.889" viewBox="0 0 723.185 410.889">
  <g id="OBJECTS" transform="translate(-49.333 -70.811)" opacity="0.9">
    <g id="Grupo_90" data-name="Grupo 90" transform="translate(49.89 71.287)">
      <g id="Grupo_34" data-name="Grupo 34" transform="translate(97.269 14.995)">
        <g id="Grupo_27" data-name="Grupo 27" transform="translate(54.492 35.969)">
          <path id="Caminho_125" data-name="Caminho 125" d="M279.088,169.14V157.758a2.021,2.021,0,0,0-2.021-2.021h-2.932a1.844,1.844,0,0,1-1.81-1.421,40.062,40.062,0,0,0-5.075-12.3,1.879,1.879,0,0,1,.244-2.332l2.066-2.066a2.018,2.018,0,0,0,0-2.854l-8.051-8.051a2.018,2.018,0,0,0-2.854,0l-2.054,2.054a1.879,1.879,0,0,1-2.332.244,40.176,40.176,0,0,0-12.3-5.075,1.855,1.855,0,0,1-1.421-1.81V119.2a2.021,2.021,0,0,0-2.021-2.021H227.139a2.021,2.021,0,0,0-2.021,2.021v2.921a1.844,1.844,0,0,1-1.421,1.81,40.238,40.238,0,0,0-12.315,5.075,1.879,1.879,0,0,1-2.332-.244l-2.054-2.054a2.017,2.017,0,0,0-2.854,0l-8.051,8.051a2.017,2.017,0,0,0,0,2.854l2.054,2.054a1.879,1.879,0,0,1,.244,2.332,40.453,40.453,0,0,0-5.075,12.3,1.855,1.855,0,0,1-1.81,1.421h-2.932a2.021,2.021,0,0,0-2.021,2.021v11.383a2.021,2.021,0,0,0,2.021,2.021H191.5a1.844,1.844,0,0,1,1.81,1.421,40.062,40.062,0,0,0,5.075,12.3,1.879,1.879,0,0,1-.244,2.332l-2.066,2.066a2.017,2.017,0,0,0,0,2.854l8.051,8.051a2.017,2.017,0,0,0,2.854,0l2.066-2.066a1.879,1.879,0,0,1,2.332-.244,40.04,40.04,0,0,0,12.3,5.064,1.855,1.855,0,0,1,1.421,1.81v2.932a2.021,2.021,0,0,0,2.021,2.021H238.51a2.021,2.021,0,0,0,2.021-2.021v-2.932a1.855,1.855,0,0,1,1.421-1.81,40.431,40.431,0,0,0,12.3-5.064,1.879,1.879,0,0,1,2.332.244l2.066,2.066a2.017,2.017,0,0,0,2.854,0l8.051-8.051a2.018,2.018,0,0,0,0-2.854l-2.066-2.066a1.879,1.879,0,0,1-.244-2.332,40.338,40.338,0,0,0,5.075-12.3,1.856,1.856,0,0,1,1.81-1.421h2.932A2,2,0,0,0,279.088,169.14Zm-46.241,26.408a32.088,32.088,0,1,1,32.071-32.1A32.086,32.086,0,0,1,232.847,195.548Z" transform="translate(-186.55 -117.18)" fill="none" stroke="#dee3fc" stroke-miterlimit="10" stroke-width="0.79"/>
          <path id="Caminho_126" data-name="Caminho 126" d="M323.293,202.193V194.43a1.377,1.377,0,0,0-1.377-1.377h-2a1.261,1.261,0,0,1-1.233-.966,27.343,27.343,0,0,0-3.454-8.384,1.275,1.275,0,0,1,.167-1.588l1.4-1.4a1.381,1.381,0,0,0,0-1.943l-5.486-5.486a1.381,1.381,0,0,0-1.943,0l-1.4,1.4a1.275,1.275,0,0,1-1.588.167A27.642,27.642,0,0,0,298,171.387a1.261,1.261,0,0,1-.966-1.233v-1.988a1.377,1.377,0,0,0-1.377-1.377H287.89a1.377,1.377,0,0,0-1.377,1.377v1.988a1.261,1.261,0,0,1-.966,1.233,27.341,27.341,0,0,0-8.384,3.454,1.275,1.275,0,0,1-1.588-.167l-1.4-1.4a1.381,1.381,0,0,0-1.943,0l-5.486,5.486a1.381,1.381,0,0,0,0,1.943l1.4,1.4a1.275,1.275,0,0,1,.167,1.588,27.343,27.343,0,0,0-3.454,8.384,1.261,1.261,0,0,1-1.233.966h-2a1.377,1.377,0,0,0-1.377,1.377v7.762a1.377,1.377,0,0,0,1.377,1.377h2a1.261,1.261,0,0,1,1.233.966,27.343,27.343,0,0,0,3.454,8.384,1.275,1.275,0,0,1-.167,1.588l-1.4,1.4a1.381,1.381,0,0,0,0,1.943l5.486,5.486a1.381,1.381,0,0,0,1.943,0l1.41-1.41a1.275,1.275,0,0,1,1.588-.167,27.342,27.342,0,0,0,8.384,3.454,1.261,1.261,0,0,1,.966,1.233v2a1.377,1.377,0,0,0,1.377,1.377h7.762a1.377,1.377,0,0,0,1.377-1.377v-2a1.261,1.261,0,0,1,.966-1.233,27.341,27.341,0,0,0,8.384-3.454,1.275,1.275,0,0,1,1.588.167l1.41,1.41a1.381,1.381,0,0,0,1.943,0l5.486-5.486a1.381,1.381,0,0,0,0-1.943l-1.41-1.41a1.275,1.275,0,0,1-.167-1.588,27.342,27.342,0,0,0,3.454-8.384,1.261,1.261,0,0,1,1.233-.966h2A1.348,1.348,0,0,0,323.293,202.193Zm-31.5,16.757a20.633,20.633,0,1,1,20.622-20.644A20.635,20.635,0,0,1,291.788,218.95Z" transform="translate(-178.406 -111.698)" fill="#dee3fc"/>
        </g>
        <g id="Grupo_28" data-name="Grupo 28" transform="translate(11.149)">
          <circle id="Elipse_1" data-name="Elipse 1" cx="3.765" cy="3.765" r="3.765" transform="translate(38.401 324.322)" fill="#a4afff"/>
          <circle id="Elipse_2" data-name="Elipse 2" cx="3.765" cy="3.765" r="3.765" transform="translate(542.158 221.578)" fill="#a4afff"/>
          <circle id="Elipse_3" data-name="Elipse 3" cx="3.765" cy="3.765" r="3.765" transform="translate(534.64 87.308)" fill="#a4afff"/>
          <circle id="Elipse_4" data-name="Elipse 4" cx="2.354" cy="2.354" r="2.354" transform="translate(400.858 43.076)" fill="#a4afff"/>
          <path id="Caminho_127" data-name="Caminho 127" d="M199.219,97.644a2.354,2.354,0,1,1-2.354-2.354A2.355,2.355,0,0,1,199.219,97.644Z" transform="translate(-142.328 -83.63)" fill="#a4afff"/>
          <path id="Caminho_128" data-name="Caminho 128" d="M246.229,228.444a2.354,2.354,0,1,1-2.354-2.354A2.355,2.355,0,0,1,246.229,228.444Z" transform="translate(-137.133 -69.176)" fill="#a4afff"/>
          <path id="Caminho_129" data-name="Caminho 129" d="M168.3,383.854a2.354,2.354,0,1,1-2.354-2.354A2.355,2.355,0,0,1,168.3,383.854Z" transform="translate(-145.744 -52.003)" fill="#a4afff"/>
          <circle id="Elipse_5" data-name="Elipse 5" cx="3.765" cy="3.765" r="3.765" transform="translate(486.999 326.543)" fill="#a4afff"/>
          <circle id="Elipse_6" data-name="Elipse 6" cx="3.765" cy="3.765" r="3.765" transform="translate(566.955 326.543)" fill="#a4afff"/>
          <circle id="Elipse_7" data-name="Elipse 7" cx="3.765" cy="3.765" r="3.765" transform="translate(117.946)" fill="#a4afff"/>
          <path id="Caminho_130" data-name="Caminho 130" d="M491.751,242.741a5.031,5.031,0,1,1-5.031-5.031A5.033,5.033,0,0,1,491.751,242.741Z" transform="translate(-110.594 -67.892)" fill="#a4afff"/>
          <path id="Caminho_131" data-name="Caminho 131" d="M157.581,186.711a5.031,5.031,0,1,1-5.031-5.031A5.033,5.033,0,0,1,157.581,186.711Z" transform="translate(-147.52 -74.083)" fill="#a4afff"/>
        </g>
        <g id="Grupo_29" data-name="Grupo 29" transform="translate(0 29.728)">
          <path id="Caminho_132" data-name="Caminho 132" d="M144.543,119.356h-6.33a.732.732,0,0,1-.733-.733v-6.33a.732.732,0,0,1,.733-.733h6.33a.732.732,0,0,1,.733.733v6.33A.739.739,0,0,1,144.543,119.356Z" transform="translate(-137.48 -111.56)" fill="#fff"/>
          <path id="Caminho_133" data-name="Caminho 133" d="M153.933,119.356H147.6a.732.732,0,0,1-.733-.733v-6.33a.732.732,0,0,1,.733-.733h6.33a.732.732,0,0,1,.733.733v6.33A.725.725,0,0,1,153.933,119.356Z" transform="translate(-136.442 -111.56)" fill="#fff"/>
          <path id="Caminho_134" data-name="Caminho 134" d="M163.333,119.356H157a.732.732,0,0,1-.733-.733v-6.33a.732.732,0,0,1,.733-.733h6.33a.732.732,0,0,1,.733.733v6.33A.725.725,0,0,1,163.333,119.356Z" transform="translate(-135.404 -111.56)" fill="#fff"/>
        </g>
        <g id="Grupo_31" data-name="Grupo 31" transform="translate(531.453 303.722)">
          <g id="Grupo_30" data-name="Grupo 30">
            <path id="Caminho_135" data-name="Caminho 135" d="M623.113,366.086h-6.33a.732.732,0,0,1-.733-.733v-6.33a.732.732,0,0,1,.733-.733h6.33a.732.732,0,0,1,.733.733v6.33A.718.718,0,0,1,623.113,366.086Z" transform="translate(-616.05 -358.29)" fill="#dee3fc"/>
            <path id="Caminho_136" data-name="Caminho 136" d="M632.513,366.086h-6.33a.732.732,0,0,1-.733-.733v-6.33a.732.732,0,0,1,.733-.733h6.33a.732.732,0,0,1,.733.733v6.33A.719.719,0,0,1,632.513,366.086Z" transform="translate(-615.011 -358.29)" fill="#dee3fc"/>
            <path id="Caminho_137" data-name="Caminho 137" d="M641.913,366.086h-6.33a.732.732,0,0,1-.733-.733v-6.33a.732.732,0,0,1,.733-.733h6.33a.732.732,0,0,1,.733.733v6.33A.725.725,0,0,1,641.913,366.086Z" transform="translate(-613.973 -358.29)" fill="#dee3fc"/>
          </g>
        </g>
        <g id="Grupo_33" data-name="Grupo 33" transform="translate(48.984 299.447)">
          <g id="Grupo_32" data-name="Grupo 32">
            <path id="Caminho_138" data-name="Caminho 138" d="M188.653,362.236h-6.33a.732.732,0,0,1-.733-.733v-6.33a.732.732,0,0,1,.733-.733h6.33a.732.732,0,0,1,.733.733v6.33A.725.725,0,0,1,188.653,362.236Z" transform="translate(-181.59 -354.44)" fill="#dee3fc"/>
            <path id="Caminho_139" data-name="Caminho 139" d="M198.053,362.236h-6.33a.732.732,0,0,1-.733-.733v-6.33a.732.732,0,0,1,.733-.733h6.33a.732.732,0,0,1,.733.733v6.33A.732.732,0,0,1,198.053,362.236Z" transform="translate(-180.551 -354.44)" fill="#dee3fc"/>
            <path id="Caminho_140" data-name="Caminho 140" d="M207.443,362.236h-6.33a.732.732,0,0,1-.733-.733v-6.33a.732.732,0,0,1,.733-.733h6.33a.732.732,0,0,1,.733.733v6.33A.718.718,0,0,1,207.443,362.236Z" transform="translate(-179.514 -354.44)" fill="#dee3fc"/>
          </g>
        </g>
      </g>
      <g id="Grupo_43" data-name="Grupo 43" transform="translate(262.201 7.444)">
        <g id="Grupo_35" data-name="Grupo 35">
          <path id="Caminho_141" data-name="Caminho 141" d="M459.96,459.847H309.709A23.711,23.711,0,0,1,286,436.138V101.7A23.711,23.711,0,0,1,309.709,77.99H459.96A23.711,23.711,0,0,1,483.669,101.7V436.138A23.711,23.711,0,0,1,459.96,459.847Z" transform="translate(-286 -77.99)" fill="#3945ba"/>
          <path id="Caminho_142" data-name="Caminho 142" d="M458.837,454.084H310.1a20.763,20.763,0,0,1-20.766-20.766V101.766A20.763,20.763,0,0,1,310.1,81H458.826a20.763,20.763,0,0,1,20.766,20.766V433.318A20.754,20.754,0,0,1,458.837,454.084Z" transform="translate(-285.632 -77.657)" fill="#fff"/>
          <path id="Caminho_143" data-name="Caminho 143" d="M470.445,100.509V431.683a14.062,14.062,0,0,1-14.059,14.059H310.9a14.062,14.062,0,0,1-14.059-14.059V100.509A14.062,14.062,0,0,1,310.9,86.45h24.264a3.539,3.539,0,0,1,3.176,1.966l2.576,5.142a6.952,6.952,0,0,0,6.23,3.865h72.982a6.94,6.94,0,0,0,6.23-3.865l2.576-5.142a3.559,3.559,0,0,1,3.176-1.966h24.264A14.064,14.064,0,0,1,470.445,100.509Z" transform="translate(-284.802 -77.055)" fill="#dee3fc"/>
          <path id="Caminho_144" data-name="Caminho 144" d="M408.675,91.4H349.9a2.479,2.479,0,0,1-2.476-2.476h0A2.479,2.479,0,0,1,349.9,86.45h58.779a2.479,2.479,0,0,1,2.476,2.476h0A2.479,2.479,0,0,1,408.675,91.4Z" transform="translate(-279.213 -77.055)" fill="#dee3fc"/>
        </g>
        <path id="Caminho_145" data-name="Caminho 145" d="M446.312,406.088H315.506a9.3,9.3,0,0,1-9.306-9.306V350.6a9.3,9.3,0,0,1,9.306-9.306H446.312a9.3,9.3,0,0,1,9.306,9.306v46.186A9.3,9.3,0,0,1,446.312,406.088Z" transform="translate(-283.768 -48.895)" fill="none" stroke="#698bd1" stroke-linecap="round" stroke-linejoin="round" stroke-miterlimit="10" stroke-width="1" stroke-dasharray="2.837"/>
        <path id="Caminho_146" data-name="Caminho 146" d="M433.524,260.986H368.637a6.709,6.709,0,0,1-6.707-6.707V222.207a6.709,6.709,0,0,1,6.707-6.707h64.887a6.709,6.709,0,0,1,6.707,6.707v32.071A6.709,6.709,0,0,1,433.524,260.986Z" transform="translate(-277.61 -62.795)" fill="none" stroke="#698bd1" stroke-linecap="round" stroke-linejoin="round" stroke-miterlimit="10" stroke-width="1" stroke-dasharray="2.837"/>
        <g id="Grupo_39" data-name="Grupo 39" transform="translate(22.432 203.233)">
          <path id="Caminho_147" data-name="Caminho 147" d="M453.111,338.806H319.1a7.991,7.991,0,0,1-8-8V274.286a7.991,7.991,0,0,1,8-8H453.111a7.991,7.991,0,0,1,8,8V330.81A8,8,0,0,1,453.111,338.806Z" transform="translate(-305.659 -260.415)" fill="#4b5a9b"/>
          <path id="Caminho_148" data-name="Caminho 148" d="M455.618,268.985v56.558a7.976,7.976,0,0,1-7.984,7.973H314.184a7.976,7.976,0,0,1-7.984-7.973V268.985A7.986,7.986,0,0,1,314.184,261H447.633A7.986,7.986,0,0,1,455.618,268.985Z" transform="translate(-306.2 -261)" fill="#7f95f4"/>
          <path id="Caminho_149" data-name="Caminho 149" d="M357.129,325.976H317.817a5.4,5.4,0,0,1-5.4-5.4V281.267a5.4,5.4,0,0,1,5.4-5.4h39.312a5.4,5.4,0,0,1,5.4,5.4v39.312A5.4,5.4,0,0,1,357.129,325.976Z" transform="translate(-305.513 -259.357)" fill="#fff"/>
          <g id="Grupo_36" data-name="Grupo 36" transform="translate(61.877 19.434)">
            <path id="Caminho_150" data-name="Caminho 150" d="M398.256,281.92H363.63a1.711,1.711,0,0,1-1.71-1.71h0a1.711,1.711,0,0,1,1.71-1.71h34.625a1.711,1.711,0,0,1,1.71,1.71h0A1.718,1.718,0,0,1,398.256,281.92Z" transform="translate(-361.92 -278.5)" fill="#b2c1f9"/>
            <path id="Caminho_151" data-name="Caminho 151" d="M382.475,288.05H363.63a1.711,1.711,0,0,1-1.71-1.71h0a1.711,1.711,0,0,1,1.71-1.71h18.845a1.711,1.711,0,0,1,1.71,1.71h0A1.718,1.718,0,0,1,382.475,288.05Z" transform="translate(-361.92 -277.823)" fill="#b2c1f9"/>
            <path id="Caminho_152" data-name="Caminho 152" d="M437.844,288.05H386.85a1.711,1.711,0,0,1-1.71-1.71h0a1.711,1.711,0,0,1,1.71-1.71h50.994a1.711,1.711,0,0,1,1.71,1.71h0A1.718,1.718,0,0,1,437.844,288.05Z" transform="translate(-359.354 -277.823)" fill="#b2c1f9"/>
            <path id="Caminho_153" data-name="Caminho 153" d="M392.792,294.18H363.63a1.711,1.711,0,0,1-1.71-1.71h0a1.711,1.711,0,0,1,1.71-1.71h29.162a1.711,1.711,0,0,1,1.71,1.71h0A1.725,1.725,0,0,1,392.792,294.18Z" transform="translate(-361.92 -277.145)" fill="#b2c1f9"/>
            <path id="Caminho_154" data-name="Caminho 154" d="M413.992,294.18H395.669a1.7,1.7,0,0,1-1.7-1.71h0a1.709,1.709,0,0,1,1.7-1.71h18.323a1.711,1.711,0,0,1,1.71,1.71h0A1.711,1.711,0,0,1,413.992,294.18Z" transform="translate(-358.378 -277.145)" fill="#b2c1f9"/>
            <path id="Caminho_155" data-name="Caminho 155" d="M434.45,294.18H417.57a1.711,1.711,0,0,1-1.71-1.71h0a1.711,1.711,0,0,1,1.71-1.71h16.88a1.711,1.711,0,0,1,1.71,1.71h0A1.718,1.718,0,0,1,434.45,294.18Z" transform="translate(-355.96 -277.145)" fill="#b2c1f9"/>
            <path id="Caminho_156" data-name="Caminho 156" d="M440.41,300.31H363.63a1.711,1.711,0,0,1-1.71-1.71h0a1.711,1.711,0,0,1,1.71-1.71h76.78a1.711,1.711,0,0,1,1.71,1.71h0A1.718,1.718,0,0,1,440.41,300.31Z" transform="translate(-361.92 -276.468)" fill="#b2c1f9"/>
            <path id="Caminho_157" data-name="Caminho 157" d="M405.885,306.44H363.63a1.711,1.711,0,0,1-1.71-1.71h0a1.711,1.711,0,0,1,1.71-1.71h42.255a1.711,1.711,0,0,1,1.71,1.71h0A1.711,1.711,0,0,1,405.885,306.44Z" transform="translate(-361.92 -275.79)" fill="#b2c1f9"/>
            <path id="Caminho_158" data-name="Caminho 158" d="M435.527,306.44H407.82a1.711,1.711,0,0,1-1.71-1.71h0a1.711,1.711,0,0,1,1.71-1.71h27.707a1.711,1.711,0,0,1,1.71,1.71h0A1.718,1.718,0,0,1,435.527,306.44Z" transform="translate(-357.037 -275.79)" fill="#b2c1f9"/>
            <path id="Caminho_159" data-name="Caminho 159" d="M388.461,312.56H363.63a1.711,1.711,0,0,1-1.71-1.71h0a1.711,1.711,0,0,1,1.71-1.71h24.831a1.711,1.711,0,0,1,1.71,1.71h0A1.718,1.718,0,0,1,388.461,312.56Z" transform="translate(-361.92 -275.114)" fill="#b2c1f9"/>
            <path id="Caminho_160" data-name="Caminho 160" d="M416.861,312.56H392.03a1.711,1.711,0,0,1-1.71-1.71h0a1.711,1.711,0,0,1,1.71-1.71h24.831a1.711,1.711,0,0,1,1.71,1.71h0A1.7,1.7,0,0,1,416.861,312.56Z" transform="translate(-358.782 -275.114)" fill="#b2c1f9"/>
            <path id="Caminho_161" data-name="Caminho 161" d="M434.2,312.56H419.8a1.711,1.711,0,0,1-1.71-1.71h0a1.711,1.711,0,0,1,1.71-1.71h14.4a1.711,1.711,0,0,1,1.71,1.71h0A1.711,1.711,0,0,1,434.2,312.56Z" transform="translate(-355.713 -275.114)" fill="#b2c1f9"/>
            <path id="Caminho_162" data-name="Caminho 162" d="M398.256,318.69H363.63a1.711,1.711,0,0,1-1.71-1.71h0a1.711,1.711,0,0,1,1.71-1.71h34.625a1.711,1.711,0,0,1,1.71,1.71h0A1.711,1.711,0,0,1,398.256,318.69Z" transform="translate(-361.92 -274.437)" fill="#b2c1f9"/>
            <path id="Caminho_163" data-name="Caminho 163" d="M436.216,281.92H401.59a1.711,1.711,0,0,1-1.71-1.71h0a1.711,1.711,0,0,1,1.71-1.71h34.625a1.711,1.711,0,0,1,1.71,1.71h0A1.718,1.718,0,0,1,436.216,281.92Z" transform="translate(-357.725 -278.5)" fill="#b2c1f9"/>
          </g>
          <g id="Grupo_38" data-name="Grupo 38">
            <path id="Caminho_164" data-name="Caminho 164" d="M455.618,268.985v2.376H306.2v-2.376A7.986,7.986,0,0,1,314.184,261H447.633A7.986,7.986,0,0,1,455.618,268.985Z" transform="translate(-306.2 -261)" fill="#3052ce"/>
            <g id="Grupo_37" data-name="Grupo 37" transform="translate(117.547 3.509)">
              <path id="Caminho_165" data-name="Caminho 165" d="M415.759,266.015a1.855,1.855,0,1,1-1.855-1.855A1.858,1.858,0,0,1,415.759,266.015Z" transform="translate(-412.05 -264.16)" fill="#dee3fc"/>
              <path id="Caminho_166" data-name="Caminho 166" d="M424.289,266.015a1.855,1.855,0,1,1-1.855-1.855A1.858,1.858,0,0,1,424.289,266.015Z" transform="translate(-411.107 -264.16)" fill="#dee3fc"/>
              <path id="Caminho_167" data-name="Caminho 167" d="M432.809,266.015a1.855,1.855,0,1,1-1.855-1.855A1.858,1.858,0,0,1,432.809,266.015Z" transform="translate(-410.166 -264.16)" fill="#dee3fc"/>
            </g>
          </g>
        </g>
        <g id="Grupo_41" data-name="Grupo 41" transform="translate(31.183 152.738)">
          <path id="Caminho_168" data-name="Caminho 168" d="M351.593,260.983H322.02a7.938,7.938,0,0,1-7.94-7.94V223.47a7.938,7.938,0,0,1,7.94-7.94h29.573a7.938,7.938,0,0,1,7.94,7.94v29.573A7.946,7.946,0,0,1,351.593,260.983Z" transform="translate(-314.08 -215.53)" fill="none" stroke="#495ad6" stroke-miterlimit="10" stroke-width="0.896"/>
          <g id="Grupo_40" data-name="Grupo 40" transform="translate(9.084 16.147)">
            <path id="Caminho_169" data-name="Caminho 169" d="M328.812,230.07l-6.552,6.552,6.6,6.6" transform="translate(-322.26 -230.07)" fill="none" stroke="#495ad6" stroke-linecap="round" stroke-linejoin="round" stroke-miterlimit="10" stroke-width="1.672"/>
            <path id="Caminho_170" data-name="Caminho 170" d="M340.935,230.07l6.541,6.552-6.6,6.6" transform="translate(-320.202 -230.07)" fill="none" stroke="#495ad6" stroke-linecap="round" stroke-linejoin="round" stroke-miterlimit="10" stroke-width="1.672"/>
            <line id="Linha_33" data-name="Linha 33" x1="6.13" y2="13.148" transform="translate(10.572)" fill="none" stroke="#495ad6" stroke-linecap="round" stroke-linejoin="round" stroke-miterlimit="10" stroke-width="1.672"/>
          </g>
        </g>
        <g id="Grupo_42" data-name="Grupo 42" transform="translate(22.432 32.704)">
          <path id="Caminho_171" data-name="Caminho 171" d="M455.618,116.524V209a9.081,9.081,0,0,1-9.084,9.084H315.284A9.088,9.088,0,0,1,306.2,209V116.524a9.088,9.088,0,0,1,9.084-9.084h131.25A9.081,9.081,0,0,1,455.618,116.524Z" transform="translate(-306.2 -107.44)" fill="#b2c1f9"/>
          <circle id="Elipse_8" data-name="Elipse 8" cx="21.655" cy="21.655" r="21.655" transform="translate(97.502 7.562)" fill="#f0f4ff"/>
          <path id="Caminho_172" data-name="Caminho 172" d="M394.03,215.595H315.284a9.088,9.088,0,0,1-9.084-9.084V191.952l34.459-59.689a4.68,4.68,0,0,1,8.107,0l26.019,45.064L394.107,210.8A4.592,4.592,0,0,1,394.03,215.595Z" transform="translate(-306.2 -104.956)" fill="#fff"/>
          <path id="Caminho_173" data-name="Caminho 173" d="M423.363,213.14h-75.3l22.1-38.268,11.9-20.622a4.211,4.211,0,0,1,7.3,0Z" transform="translate(-301.574 -102.5)" fill="#f0f4ff"/>
        </g>
      </g>
      <g id="Grupo_55" data-name="Grupo 55" transform="translate(434.89 155.975)">
        <g id="Grupo_45" data-name="Grupo 45" transform="translate(62.837 166.64)">
          <rect id="Retângulo_23" data-name="Retângulo 23" width="58.057" height="87.241" fill="#3b47bc"/>
          <rect id="Retângulo_24" data-name="Retângulo 24" width="22.232" height="87.241" transform="translate(80.282 87.245) rotate(180)" fill="#495ad6"/>
          <g id="Grupo_44" data-name="Grupo 44" transform="translate(61.233 3.354)">
            <rect id="Retângulo_25" data-name="Retângulo 25" width="16.324" height="2.787" fill="#b2c1f9"/>
            <rect id="Retângulo_26" data-name="Retângulo 26" width="16.324" height="2.787" transform="translate(0 5.975)" fill="#b2c1f9"/>
            <rect id="Retângulo_27" data-name="Retângulo 27" width="16.324" height="2.787" transform="translate(0 11.96)" fill="#b2c1f9"/>
            <rect id="Retângulo_28" data-name="Retângulo 28" width="16.324" height="2.787" transform="translate(0 17.946)" fill="#b2c1f9"/>
            <rect id="Retângulo_29" data-name="Retângulo 29" width="16.324" height="2.787" transform="translate(0 23.92)" fill="#b2c1f9"/>
            <rect id="Retângulo_30" data-name="Retângulo 30" width="16.324" height="2.787" transform="translate(0 29.906)" fill="#b2c1f9"/>
            <rect id="Retângulo_31" data-name="Retângulo 31" width="16.324" height="2.787" transform="translate(0 35.88)" fill="#b2c1f9"/>
            <rect id="Retângulo_32" data-name="Retângulo 32" width="16.324" height="2.787" transform="translate(0 41.866)" fill="#b2c1f9"/>
            <rect id="Retângulo_33" data-name="Retângulo 33" width="16.324" height="2.787" transform="translate(0 47.852)" fill="#b2c1f9"/>
            <rect id="Retângulo_34" data-name="Retângulo 34" width="16.324" height="2.787" transform="translate(0 53.826)" fill="#b2c1f9"/>
            <rect id="Retângulo_35" data-name="Retângulo 35" width="16.324" height="2.787" transform="translate(0 59.812)" fill="#b2c1f9"/>
            <rect id="Retângulo_36" data-name="Retângulo 36" width="16.324" height="2.787" transform="translate(0 65.797)" fill="#b2c1f9"/>
            <rect id="Retângulo_37" data-name="Retângulo 37" width="16.324" height="2.787" transform="translate(0 71.772)" fill="#b2c1f9"/>
            <rect id="Retângulo_38" data-name="Retângulo 38" width="16.324" height="2.787" transform="translate(0 77.757)" fill="#b2c1f9"/>
          </g>
        </g>
        <g id="Grupo_54" data-name="Grupo 54">
          <path id="Caminho_174" data-name="Caminho 174" d="M489.6,441.53H519.11s1.643-5.253-1.921-11.76c0,0-2.376,1.9-9.484.611a31.556,31.556,0,0,1-5.019,3.509C500.62,434.889,488.8,437.21,489.6,441.53Z" transform="translate(-436.195 -187.65)" fill="#281616"/>
          <path id="Caminho_175" data-name="Caminho 175" d="M491.517,366.046c1.91,11.372,10.694,49.839,14.481,72.56,6.907.589,10.228-.2,11.982-.611-.344-7.929-1.022-26.885-.944-35.192.133-14.048.789-32.571-5.4-42.743l-20.8,1.632c.122,1.1.244,1.988.344,2.632C491.3,364.946,491.406,365.513,491.517,366.046Z" transform="translate(-436.054 -195.353)" fill="#002c54"/>
          <path id="Caminho_176" data-name="Caminho 176" d="M441.544,441.53H471.05s1.644-5.253-1.921-11.76c0,0-2.376,1.9-9.484.611a31.556,31.556,0,0,1-5.02,3.509C452.56,434.889,440.755,437.21,441.544,441.53Z" transform="translate(-441.506 -187.65)" fill="#281616"/>
          <path id="Caminho_177" data-name="Caminho 177" d="M457.07,438.62a33.926,33.926,0,0,0,11.649,1.044c1.566-9.139,4.042-29.228,6.274-38.657,3.465-14.648,6.852-34.781,4.5-41.966L459.036,353.9C458.969,354.555,457.3,416.188,457.07,438.62Z" transform="translate(-439.786 -196.033)" fill="#052635"/>
          <path id="Caminho_178" data-name="Caminho 178" d="M538.29,335.716h0c-.411-4.042-.888-7-.888-7l-22.854,5.6-19.411,4.42c-7.2,1.6-15.891,3.531-23.554,5.264-8.606,1.954-14.314,8.484-12.426,17.1l2.154,10.45c12.027-.167,68.6-5.586,73.426-8.029C540.2,360.769,541.844,351.008,538.29,335.716Z" transform="translate(-439.596 -198.816)" fill="#052635"/>
          <path id="Caminho_179" data-name="Caminho 179" d="M569.01,335.854h0a31.537,31.537,0,0,0-2.388-8.384l-21.355,6.974-19.411,4.42c-7.2,1.6-15.891,3.531-23.554,5.264-8.606,1.954-14.314,8.484-12.427,17.1l2.154,10.45c12.027-.167,62.31-1.921,73.426-8.029C570.82,360.718,572.575,351.146,569.01,335.854Z" transform="translate(-436.201 -198.954)" fill="#002c54"/>
          <g id="Grupo_46" data-name="Grupo 46" transform="translate(35.252 102.117)">
            <path id="Caminho_180" data-name="Caminho 180" d="M506.843,305.732s10.15-4.586,12.948.011c1.532,2.521.466,7.2-2.987,9.162s-23.021,10.239-41.488,14.847a44.351,44.351,0,0,0-2.066-5.264,96.722,96.722,0,0,0,16.513-9.217,105,105,0,0,1,17.079-9.539Z" transform="translate(-473.25 -303.697)" fill="#e5918f"/>
          </g>
          <path id="Caminho_181" data-name="Caminho 181" d="M506.645,276.98l-8.7,34.748s.9,8.784,9.772,4.475,14.747-31.993,14.747-31.993Z" transform="translate(-435.269 -204.533)" fill="#e5918f"/>
          <path id="Caminho_182" data-name="Caminho 182" d="M520.9,298.415c-1.077-.255-2.1-.544-3.1-.844s-1.977-.611-2.9-.933A48.818,48.818,0,0,1,502.17,290.4c2.6-11.294,5.73-18.89,8.518-23.887a3.912,3.912,0,0,0,.211-.366c.078-.122.144-.244.222-.366a21.776,21.776,0,0,1,6.052-6.3c.244-.178.478-.333.733-.511l1.022,18.146.178,1.866Z" transform="translate(-434.802 -206.523)" fill="#fff"/>
          <path id="Caminho_183" data-name="Caminho 183" d="M519.637,296.647c-1.077-.255-2.1-.544-3.1-.844s-1.977-.611-2.9-.933c1.732-12.215,3.309-19.9,3.309-19.9l.888,2.243Z" transform="translate(-433.535 -204.755)" fill="#c7e5f2"/>
          <path id="Caminho_184" data-name="Caminho 184" d="M570.967,267.725c-.211,5.375-1.155,13.992-1.966,22.654-.255,2.743-.511,5.508-.722,8.173-.144,1.655-2.643,10.505-2.743,12.093-.444,7.574-4.153,13.237-.644,24.775a18.175,18.175,0,0,1,1.055,5.319c0,.788-1.022,1.621-1.433,1.843-1.477.855-4.364,1.444-7.885,1.877h-.011a203.553,203.553,0,0,1-21.877,1c-7.563,0-18.912-1.2-20.344-3.109-1.31-1.744-.1-4.287.522-7.785,2.787-15.8,1.8-24.042,1.621-35.458,0-.289-.011-.566-.011-.866-.289-17.6-1.444-32.66-.633-38.09.244-.178.478-.333.733-.511,1.2-.822,2.376-1.544,3.509-2.188a2.979,2.979,0,0,0,.344-.2c.344-.2.711-.389,1.044-.566a3.357,3.357,0,0,1,.4-.2,85.553,85.553,0,0,1,8.44-3.331c.278-.089.522-.178.733-.233,2.021-.122,4.209-.144,6.574-.089,2.054.067,5.2.333,8.618.777h.011a88.745,88.745,0,0,1,11.438,2.143l.067.022a23.519,23.519,0,0,1,9,6.3A32.018,32.018,0,0,1,570.967,267.725Z" transform="translate(-433.516 -207.205)" fill="#fff"/>
          <path id="Caminho_185" data-name="Caminho 185" d="M560.8,332.773a18.173,18.173,0,0,1,1.055,5.319c0,.788-1.022,1.621-1.433,1.843-1.477.855-4.364,1.444-7.885,1.877,1.444-.178,3.942-2.465,3.942-4.542,0-1.455-1.877-11.249-1.366-17.568s1.544-16.358-.411-24.409-3.809-18.623-3.809-18.623l11.027,6.663s1.421,1.988,2.987,4.409c-.255,2.743-.511,5.508-.722,8.173C564.038,297.57,557.286,321.246,560.8,332.773Z" transform="translate(-429.419 -204.567)" fill="#c7e5f2"/>
          <g id="Grupo_52" data-name="Grupo 52" transform="translate(77.69)">
            <path id="Caminho_186" data-name="Caminho 186" d="M516.13,224.35s.955,11.527,4.775,12.3,2.887-4.12,2.887-4.12l-.533-5.475Z" transform="translate(-510.95 -210.349)" fill="#002c54"/>
            <path id="Caminho_187" data-name="Caminho 187" d="M532.511,264.865c-7.485-.888-4.686-8.162-3.665-9.839.278-.089,1.555-.478,1.655-.544a.035.035,0,0,1,.022-.011,2.082,2.082,0,0,0,.578-.866c.733-1.921.4-5.741.367-5.986v-.7c.122-.455.244-.888.344-1.3l3.931-3.1,8.329-6.552s-2.21,10.95-.433,17.857a2.568,2.568,0,0,0,1.1,1.655c0,.011.011,0,.011,0a2.17,2.17,0,0,0,.833.3C547.647,256.747,544.793,266.32,532.511,264.865Z" transform="translate(-509.695 -209.065)" fill="#e5918f"/>
            <path id="Caminho_188" data-name="Caminho 188" d="M538.747,242.24a12.421,12.421,0,0,1-8.007,10.672c.733-1.91.4-5.73.378-5.975l3.32-2.61Z" transform="translate(-509.335 -208.372)" fill="#cc6362"/>
            <path id="Caminho_189" data-name="Caminho 189" d="M517.78,226.969s1.732,23.931,8.2,25.964a16.789,16.789,0,0,0,14.137-7.174c1.7-2.288,3.853-2.81,4.553-5.575,1.144-4.5,2.754-12.782.7-17.779C542.433,215.3,518.058,209.656,517.78,226.969Z" transform="translate(-510.767 -211.324)" fill="#e5918f"/>
            <path id="Caminho_190" data-name="Caminho 190" d="M546.163,218.88c-.111-4.342-4.509-5.975-4.509-5.975-4.375-2.054-13.481-1.166-22.865.933-2.2.489-4.964-.855-6.5.211-1.855,1.288-.011,7.174-.011,7.174,3.62,10.961,16.935,7.4,20.944,6.041.955,2.821.833,6.741,3.2,8.773,1.355,1.155,3.7,1.188,6.1.788.3.555,1.4,1.055,1.621,1.821.755,2.565.644,6.574.622,9.661l1.133-.555C546.04,246.909,557.723,219.236,546.163,218.88Z" transform="translate(-511.465 -211.742)" fill="#002c54"/>
            <g id="Grupo_47" data-name="Grupo 47" transform="translate(7.969 19.099)">
              <path id="Caminho_191" data-name="Caminho 191" d="M524.3,233.4c.333,1.988-.644,3.809-2.188,4.076s-3.076-1.133-3.409-3.121.644-3.809,2.188-4.076S523.97,231.416,524.3,233.4Z" transform="translate(-518.641 -228.796)" fill="none" stroke="#fff" stroke-miterlimit="10" stroke-width="0.501"/>
              <path id="Caminho_192" data-name="Caminho 192" d="M531.333,232.094c.333,1.988-.644,3.809-2.188,4.076s-3.076-1.133-3.409-3.12.644-3.809,2.188-4.076S531,230.106,531.333,232.094Z" transform="translate(-517.865 -228.941)" fill="none" stroke="#fff" stroke-miterlimit="10" stroke-width="0.501"/>
              <path id="Caminho_193" data-name="Caminho 193" d="M523.74,233.133s.344-.555,2.143-.4" transform="translate(-518.078 -228.525)" fill="none" stroke="#fff" stroke-miterlimit="10" stroke-width="0.501"/>
              <line id="Linha_34" data-name="Linha 34" y1="1.066" x2="6.674" transform="translate(13.536 2.553)" fill="none" stroke="#fff" stroke-miterlimit="10" stroke-width="0.501"/>
            </g>
            <g id="Grupo_48" data-name="Grupo 48" transform="translate(26.769 20.054)">
              <path id="Caminho_194" data-name="Caminho 194" d="M537.48,239.872c4.6,1.766,6.03-9.55,1.666-10.05-3.309-.378-3.443,4.242-3.443,4.242S534.848,238.873,537.48,239.872Z" transform="translate(-535.571 -229.8)" fill="#e5918f"/>
            </g>
            <g id="Grupo_51" data-name="Grupo 51" transform="translate(28.253 21.786)" opacity="0.5">
              <g id="Grupo_49" data-name="Grupo 49">
                <path id="Caminho_195" data-name="Caminho 195" d="M538.843,231.36a3.955,3.955,0,0,0-.566.811,4.655,4.655,0,0,0-.555,1.932,7.3,7.3,0,0,0-.022,1.1c.011.355.056.7.078.988s.055.555.078.733a2.579,2.579,0,0,1,.022.289,2.322,2.322,0,0,1-.167-.233,4.982,4.982,0,0,1-.378-.655A4.091,4.091,0,0,1,537,235.3a4.3,4.3,0,0,1-.078-1.266,3.889,3.889,0,0,1,.333-1.244,3.06,3.06,0,0,1,.666-.9A2.039,2.039,0,0,1,538.843,231.36Z" transform="translate(-536.907 -231.36)" fill="#cc6362"/>
              </g>
              <g id="Grupo_50" data-name="Grupo 50" transform="translate(0.059 2.128)">
                <path id="Caminho_196" data-name="Caminho 196" d="M539.559,233.291a1.992,1.992,0,0,0-.444.122,2.157,2.157,0,0,0-.811.511,2.351,2.351,0,0,0-.589,1.155l-.755-.267a2.949,2.949,0,0,1,.278-.444,2.67,2.67,0,0,1,.833-.766,2.415,2.415,0,0,1,1.033-.311A1.683,1.683,0,0,1,539.559,233.291Z" transform="translate(-536.96 -233.277)" fill="#cc6362"/>
              </g>
            </g>
          </g>
          <path id="Caminho_197" data-name="Caminho 197" d="M579.417,313.293v.011c-2.021,2.343-9.684,4.053-13.37.811-1.155-1.033-2.465-3.754-3.753-7.129a221.9,221.9,0,0,1-6.363-21.544l17.157-8.762s2.21,9.895,4.109,19.3c0,0,.022.1.056.266.622,3.009,1.2,5.975,1.643,8.518a1.238,1.238,0,0,1,.033.2A37.073,37.073,0,0,1,579.417,313.293Z" transform="translate(-428.862 -204.566)" fill="#e5918f"/>
          <path id="Caminho_198" data-name="Caminho 198" d="M550.09,275.578c1.655,6.885,6.863,19.945,6.863,19.945A27.136,27.136,0,0,0,569.546,294a23.158,23.158,0,0,0,8.018-5.208s-3.454-9.706-6.552-16.68c-2.776-6.263-4.453-8.6-5.652-9.839a27.316,27.316,0,0,0-6.807-5.064Z" transform="translate(-429.507 -206.718)" fill="#fff"/>
          <path id="Caminho_199" data-name="Caminho 199" d="M571.41,280.265l-10.061-4.342L553.42,255.49s1.455.444,3.365,1.21h.011c.033.022.122.044.255.1a.83.83,0,0,1,.144.067c1.71.8,8.34,4.708,12.937,18.912.033.122.078.244.111.355.489,1.632.844,2.954,1.044,3.631.022.067.033.133.056.2Q571.377,280.132,571.41,280.265Z" transform="translate(-429.139 -206.908)" fill="#fff"/>
          <g id="Grupo_53" data-name="Grupo 53" transform="translate(86.173 91.139)">
            <path id="Caminho_200" data-name="Caminho 200" d="M582.329,311.4v.011c-.144,1.255-.489,2.154-1.11,2.476-.1.067-1.51.9-1.61.966a86.229,86.229,0,0,1-10.628,5.5,385.037,385.037,0,0,1-37.124,13.337,43.328,43.328,0,0,0-2.276-5.186,97.174,97.174,0,0,0,16.113-9.895c8-6.108,19.512-13.526,19.512-13.526l2.909-3.42s10.328-9.506,11.993-7.6c0,0,.022.1.055.266.244.988,1.066,4.642,1.644,8.518a1.258,1.258,0,0,1,.033.2A37.315,37.315,0,0,1,582.329,311.4Z" transform="translate(-517.947 -293.812)" fill="#e5918f"/>
            <path id="Caminho_201" data-name="Caminho 201" d="M531.915,324.681a6.377,6.377,0,0,1-4.076.788c-1.144-.244-1.6-.7-2.443-.855a18.748,18.748,0,0,1-4.2-.966c-1.111-.544-1.544-.611-1.5.511s2.232,2.077,2.821,2.388a5.762,5.762,0,0,1,1.422,1.421c.078.122-3.654,2.077-4.653,1.677a2.93,2.93,0,0,0-.133,1.4c.167.5.933.677,1,.933s-.178.766-.011,1.166.855.4,1.133,1.055-.033.655.178,1.333,1.066.8,1.233,1.144.078.755.444,1,3.72-.833,4.942-1.366,4.5-5.242,8.118-6.841Z" transform="translate(-519.105 -290.557)" fill="#e5918f"/>
          </g>
          <path id="Caminho_202" data-name="Caminho 202" d="M548.677,343.734h-26.1V341.18h26.1a1.277,1.277,0,0,1,1.277,1.277h0A1.277,1.277,0,0,1,548.677,343.734Z" transform="translate(-432.547 -197.439)" fill="#375f84"/>
          <path id="Caminho_203" data-name="Caminho 203" d="M541.374,348.608H476.044a1.746,1.746,0,0,1-1.677-1.277L461,299.191a1.674,1.674,0,0,1,1.61-2.121h63.176a3.259,3.259,0,0,1,3.154,2.4l13.326,47.963A.926.926,0,0,1,541.374,348.608Z" transform="translate(-439.359 -202.313)" fill="#375f84"/>
          <path id="Caminho_204" data-name="Caminho 204" d="M539.244,348.608H473.914a1.746,1.746,0,0,1-1.677-1.277l-13.37-48.14a1.674,1.674,0,0,1,1.61-2.121h63.176a3.259,3.259,0,0,1,3.154,2.4l13.326,47.963A.926.926,0,0,1,539.244,348.608Z" transform="translate(-439.595 -202.313)" fill="#467cdb"/>
        </g>
      </g>
      <g id="Grupo_57" data-name="Grupo 57" transform="translate(149.25 218.378)">
        <path id="Caminho_205" data-name="Caminho 205" d="M298.06,317.5l7.574-7.762a20.319,20.319,0,0,1,.677-4.187c.411-.733,1.477-3.431,2.01-3.731a2.69,2.69,0,0,1,1.588,0,7.327,7.327,0,0,1,1.521-.355,4.517,4.517,0,0,1,1.355.433s1.133-.078,1.6-.078a1.013,1.013,0,0,1,.622.133,33.155,33.155,0,0,1,2.71-2.81c.888-.711,2.232-2.01,2.632-2,.378,0,.544.666.267,1.377a7.779,7.779,0,0,1-1.477,1.843l-3.443,5.23a6.8,6.8,0,0,0,.9-.433c.311-.2,2.421-2.165,2.543-2.243s1.066-.711,1.621-.078-3.609,5.608-4.275,6.285a36.666,36.666,0,0,1-4.486,2.61s-4.042,7.263-4.431,7.729S298.06,317.5,298.06,317.5Z" transform="translate(-171.717 -264.708)" fill="#e49191"/>
        <path id="Caminho_206" data-name="Caminho 206" d="M307.277,284.5s-4.231,24.487-8.207,25.053c0,0-15.88.644-19.423-18.634-3.065-16.713,9.239-20.278,15-19S308.51,274.035,307.277,284.5Z" transform="translate(-173.805 -267.521)" fill="#e49191"/>
        <path id="Caminho_207" data-name="Caminho 207" d="M293.4,303.575s-2.221,3-3.009,10.261a23.585,23.585,0,0,1-12.715-2.2,89.9,89.9,0,0,0,3.687-21.377" transform="translate(-173.969 -265.468)" fill="#e49191"/>
        <path id="Caminho_208" data-name="Caminho 208" d="M289.083,268.229c-8.684,1.921-7.985,7.329-7.985,7.329-4.064,1.011-4.942,2.687-4.908,10.183s2.743,16.513,4.242,17.246,9.983.766,10.694.511,3.676-7.141,2.987-8.351.033-5.974,2.01-6.152,1.588,2.887,1.588,2.887l1.621-.355,1.255-3.076c11.471.677,14.437-12.393,14.437-12.393C312.281,274.259,297.767,266.319,289.083,268.229Z" transform="translate(-174.134 -267.935)" fill="#002c54"/>
        <path id="Caminho_209" data-name="Caminho 209" d="M201.517,417.5l8.773,1.266-2.909,10.25-9.506-2.4a6.178,6.178,0,0,1,1.977-9.117A3.12,3.12,0,0,1,201.517,417.5Z" transform="translate(-182.926 -251.42)" fill="#e5918f"/>
        <path id="Caminho_210" data-name="Caminho 210" d="M266.2,397.739l-12.937-39.167s-3.92-1.4-5.93,0c0,0-13.482,7.252-12.038,27.907,1.088,15.58,4.375,32.471,5.708,39.245l-34.514-1.277a11.769,11.769,0,0,0-1.5,11.649s43.376,11.66,49.484,12.737c4.964.877,10.405,1.555,13.026-.7C272.111,444.191,266.2,397.739,266.2,397.739Z" transform="translate(-182.104 -257.988)"/>
        <path id="Caminho_211" data-name="Caminho 211" d="M238.317,417.5l8.773,1.266-2.909,10.25-9.506-2.4a6.178,6.178,0,0,1,1.977-9.117A3.12,3.12,0,0,1,238.317,417.5Z" transform="translate(-178.86 -251.42)" fill="#e5918f"/>
        <path id="Caminho_212" data-name="Caminho 212" d="M236.493,423.137c-.2,2.021,1.566,3.831,1.244,4.342s-6.219,10.405-6.219,10.405,4.453,1.943,3.731,4.742H223.966a9.367,9.367,0,0,1-2.876-6.463,32.712,32.712,0,0,1,2.776-8.262c2.01-3.876,6.585-12.638,6.585-12.638a6.363,6.363,0,0,1,3.765.067,22.884,22.884,0,0,1,5.453,2.443S236.981,418.151,236.493,423.137Z" transform="translate(-180.223 -251.681)" fill="#467cdb"/>
        <path id="Caminho_213" data-name="Caminho 213" d="M324.77,439.865c-2.787-10.394-28.984-54.759-37.857-66.741C268.7,365.217,249.3,358.51,249.3,358.51c-8.029,1.921-11.982,18.09-7.429,28.873,3.12,7.4,22.932,26.008,35.07,36.969l-33.67-.044s-3.965,5.93-.378,11.56c0,0,55.992,12.726,60.9,13.448s15.936,0,15.936,0S327.113,448.605,324.77,439.865Z" transform="translate(-178.139 -257.926)" fill="#002c54"/>
        <path id="Caminho_214" data-name="Caminho 214" d="M199.693,423.137c-.2,2.021,1.566,3.831,1.244,4.342s-6.219,10.405-6.219,10.405,4.453,1.943,3.731,4.742H187.166a9.367,9.367,0,0,1-2.876-6.463,32.712,32.712,0,0,1,2.776-8.262c2.01-3.876,6.585-12.638,6.585-12.638a6.363,6.363,0,0,1,3.765.067,22.883,22.883,0,0,1,5.453,2.443S200.181,418.151,199.693,423.137Z" transform="translate(-184.289 -251.681)" fill="#467cdb"/>
        <path id="Caminho_215" data-name="Caminho 215" d="M358.439,308.68l-18.057,31.76-12.937-12.893L316.74,343.483l3.109,1.488-1.122.933s24.953,12.149,27.951,9.473S363.6,312.289,363.6,312.289Z" transform="translate(-169.653 -263.433)" fill="#e49191"/>
        <path id="Caminho_216" data-name="Caminho 216" d="M338.259,330.147s-3.409,14.381-10.228,21.2l-17.446-6.641s-8.1,13.615-16.013,24.053c-3.043,4.031-4.053,9.706-7.629,10.45-.222-.078-.433-.144-.655-.2-9.695-2.91-24,.178-35.8-4.209-13.037-4.853-10.505-7.585-10.505-7.585a168.41,168.41,0,0,0,12.393-29.339,179.883,179.883,0,0,0,4.309-17.69,20.369,20.369,0,0,1,17.146-16.4c.1-.011.189-.033.289-.044,9.883-1.255,35.758,1.8,40.789,3.953S338.259,330.147,338.259,330.147Z" transform="translate(-178.157 -264.011)" fill="#467cdb"/>
        <path id="Caminho_217" data-name="Caminho 217" d="M305.893,340.83s-8.1,13.615-16.013,24.053c-3.043,4.031-4.053,9.706-7.629,10.45,1.566-.555,4.164-8.8,5.086-10.65s2.41-3.7,5.608-10.172,7.518-15.991,7.518-15.991Z" transform="translate(-173.464 -260.135)" fill="#5996ef"/>
        <g id="Grupo_56" data-name="Grupo 56" transform="translate(98.802 166.078)">
          <path id="Caminho_218" data-name="Caminho 218" d="M273.26,417.835a7.078,7.078,0,0,1,.755-.122c.489-.056,1.177-.156,2.01-.189a34.18,34.18,0,0,1,6.108.278,31.807,31.807,0,0,1,3.22.611,25.035,25.035,0,0,1,2.743.811c.788.266,1.421.566,1.877.766s.689.333.689.333-.278-.033-.755-.111c-.478-.1-1.166-.189-1.977-.333-1.632-.278-3.787-.622-5.952-.911-1.077-.167-2.165-.289-3.187-.422s-1.977-.244-2.787-.355C274.359,417.979,273.26,417.835,273.26,417.835Z" transform="translate(-273.26 -417.487)"/>
        </g>
        <path id="Caminho_219" data-name="Caminho 219" d="M367.884,298.714a16.674,16.674,0,0,0-3.032,2.188l1.033-1.977a19,19,0,0,0,1.855-2.032c.489-.722.233-1.444-.155-1.477a15.731,15.731,0,0,0-2.843,2.032l.211-.4a19,19,0,0,0,1.855-2.032c.489-.722.233-1.444-.155-1.477s-3.52,2.587-3.52,2.587l-1.521,2.043,1.155-2.232a9.561,9.561,0,0,0,1.011-1.544c.4-.811.111-1.055-.111-1.322s-2.332,1.3-2.876,1.932a34.007,34.007,0,0,0-2.377,3.531l-1.766,3.642c-.111-1.055-.289-2.865-.411-4.02-.178-1.655-1.688-2.054-1.732-1.244s-.888,4.775-.7,6.93.555,3.565.689,4.775-1.122,3.631-1.122,3.631,5.031,3.12,5.852,2.188a38.645,38.645,0,0,0,3.454-4.409,23.244,23.244,0,0,0,1.966-4.442l1.566-3.354a19,19,0,0,0,1.855-2.032C368.528,299.481,368.273,298.759,367.884,298.714Z" transform="translate(-165.605 -265.16)" fill="#e49191"/>
      </g>
      <g id="Grupo_59" data-name="Grupo 59" transform="translate(574.218 150.787)">
        <path id="Caminho_220" data-name="Caminho 220" d="M632.734,207.07H573.811a6.844,6.844,0,0,0-6.841,6.841v13.926a6.84,6.84,0,0,0,5.974,6.785.993.993,0,0,1,.866.977v7.618a.454.454,0,0,0,.822.267l6.008-8.4a.98.98,0,0,1,.811-.411h51.294a6.844,6.844,0,0,0,6.841-6.841V213.911A6.86,6.86,0,0,0,632.734,207.07Z" transform="translate(-566.97 -207.07)" fill="none" stroke="#fff" stroke-miterlimit="10" stroke-width="0.896"/>
        <g id="Grupo_58" data-name="Grupo 58" transform="translate(11.371 11.527)">
          <path id="Caminho_221" data-name="Caminho 221" d="M581.719,219.7a2.254,2.254,0,1,1-2.254-2.254A2.256,2.256,0,0,1,581.719,219.7Z" transform="translate(-577.21 -217.45)" fill="none" stroke="#fff" stroke-miterlimit="10" stroke-width="0.896"/>
          <path id="Caminho_222" data-name="Caminho 222" d="M591.929,219.7a2.254,2.254,0,1,1-2.254-2.254A2.256,2.256,0,0,1,591.929,219.7Z" transform="translate(-576.082 -217.45)" fill="none" stroke="#fff" stroke-miterlimit="10" stroke-width="0.896"/>
          <path id="Caminho_223" data-name="Caminho 223" d="M602.139,219.7a2.254,2.254,0,1,1-2.254-2.254A2.256,2.256,0,0,1,602.139,219.7Z" transform="translate(-574.953 -217.45)" fill="none" stroke="#fff" stroke-miterlimit="10" stroke-width="0.896"/>
          <path id="Caminho_224" data-name="Caminho 224" d="M612.349,219.7a2.254,2.254,0,1,1-2.254-2.254A2.256,2.256,0,0,1,612.349,219.7Z" transform="translate(-573.825 -217.45)" fill="none" stroke="#fff" stroke-miterlimit="10" stroke-width="0.896"/>
          <path id="Caminho_225" data-name="Caminho 225" d="M622.559,219.7a2.254,2.254,0,1,1-2.254-2.254A2.256,2.256,0,0,1,622.559,219.7Z" transform="translate(-572.697 -217.45)" fill="none" stroke="#fff" stroke-miterlimit="10" stroke-width="0.896"/>
        </g>
      </g>
      <g id="Grupo_61" data-name="Grupo 61" transform="translate(167.497 211.82)">
        <path id="Caminho_226" data-name="Caminho 226" d="M207.572,262.03h58.923a6.844,6.844,0,0,1,6.841,6.841V282.8a6.84,6.84,0,0,1-5.974,6.785.993.993,0,0,0-.866.977v7.618a.454.454,0,0,1-.822.267l-6.008-8.4a1.01,1.01,0,0,0-.811-.411H207.561a6.844,6.844,0,0,1-6.841-6.841V268.871A6.86,6.86,0,0,1,207.572,262.03Z" transform="translate(-200.72 -262.03)" fill="none" stroke="#fff" stroke-miterlimit="10" stroke-width="0.896"/>
        <g id="Grupo_60" data-name="Grupo 60" transform="translate(11.394 11.527)">
          <path id="Caminho_227" data-name="Caminho 227" d="M251.81,274.664a2.254,2.254,0,1,0,2.254-2.254A2.256,2.256,0,0,0,251.81,274.664Z" transform="translate(-206.468 -272.41)" fill="none" stroke="#fff" stroke-miterlimit="10" stroke-width="0.896"/>
          <path id="Caminho_228" data-name="Caminho 228" d="M241.6,274.664a2.254,2.254,0,1,0,2.254-2.254A2.256,2.256,0,0,0,241.6,274.664Z" transform="translate(-207.596 -272.41)" fill="none" stroke="#fff" stroke-miterlimit="10" stroke-width="0.896"/>
          <path id="Caminho_229" data-name="Caminho 229" d="M231.4,274.664a2.254,2.254,0,1,0,2.254-2.254A2.256,2.256,0,0,0,231.4,274.664Z" transform="translate(-208.724 -272.41)" fill="none" stroke="#fff" stroke-miterlimit="10" stroke-width="0.896"/>
          <path id="Caminho_230" data-name="Caminho 230" d="M221.19,274.664a2.254,2.254,0,1,0,2.254-2.254A2.256,2.256,0,0,0,221.19,274.664Z" transform="translate(-209.852 -272.41)" fill="none" stroke="#fff" stroke-miterlimit="10" stroke-width="0.896"/>
          <path id="Caminho_231" data-name="Caminho 231" d="M210.98,274.664a2.254,2.254,0,1,0,2.254-2.254A2.256,2.256,0,0,0,210.98,274.664Z" transform="translate(-210.98 -272.41)" fill="none" stroke="#fff" stroke-miterlimit="10" stroke-width="0.896"/>
        </g>
      </g>
      <g id="Grupo_63" data-name="Grupo 63" transform="translate(412.096 97.217)">
        <path id="Caminho_232" data-name="Caminho 232" d="M539.115,180.285H431.707a10.728,10.728,0,0,1-10.727-10.727h0a10.728,10.728,0,0,1,10.727-10.727H539.115a10.728,10.728,0,0,1,10.727,10.727h0A10.727,10.727,0,0,1,539.115,180.285Z" transform="translate(-420.98 -158.83)" fill="#fff" stroke="#495ad6" stroke-miterlimit="10" stroke-width="0.896"/>
        <g id="Grupo_62" data-name="Grupo 62" transform="translate(105.142 4.287)">
          <path id="Caminho_233" data-name="Caminho 233" d="M527.076,168.4a5.708,5.708,0,1,1-5.708-5.708A5.706,5.706,0,0,1,527.076,168.4Z" transform="translate(-515.66 -162.69)" fill="none" stroke="#495ad6" stroke-miterlimit="10" stroke-width="1.672"/>
          <line id="Linha_35" data-name="Linha 35" x2="3.143" y2="3.154" transform="translate(9.75 9.739)" fill="none" stroke="#495ad6" stroke-linecap="round" stroke-miterlimit="10" stroke-width="1.672"/>
        </g>
      </g>
      <g id="Grupo_86" data-name="Grupo 86" transform="translate(94.67)">
        <g id="Grupo_64" data-name="Grupo 64" transform="translate(229.241 366.236)">
          <path id="Caminho_234" data-name="Caminho 234" d="M384.39,445.222H357.372a8.559,8.559,0,0,1-8.562-8.562V409.642a8.559,8.559,0,0,1,8.562-8.562H384.39a8.559,8.559,0,0,1,8.562,8.562V436.66A8.559,8.559,0,0,1,384.39,445.222Z" transform="translate(-340.77 -401.08)" fill="#193091"/>
          <path id="Caminho_235" data-name="Caminho 235" d="M377.15,445.222H350.132a8.559,8.559,0,0,1-8.562-8.562V409.642a8.559,8.559,0,0,1,8.562-8.562H377.15a8.559,8.559,0,0,1,8.562,8.562V436.66A8.574,8.574,0,0,1,377.15,445.222Z" transform="translate(-341.57 -401.08)" fill="#495ad6"/>
          <path id="Caminho_236" data-name="Caminho 236" d="M356.925,413.466l12.671,7.318a1.177,1.177,0,0,1,0,2.032l-12.671,7.318a1.168,1.168,0,0,1-1.755-1.011V414.5A1.17,1.17,0,0,1,356.925,413.466Z" transform="translate(-340.067 -399.729)" fill="#fff"/>
        </g>
        <g id="Grupo_65" data-name="Grupo 65" transform="translate(495.328 352.665)">
          <path id="Caminho_237" data-name="Caminho 237" d="M637.159,446.573H601.834a11.2,11.2,0,0,1-11.194-11.194V400.054a11.2,11.2,0,0,1,11.194-11.194h35.325a11.2,11.2,0,0,1,11.194,11.194v35.325A11.19,11.19,0,0,1,637.159,446.573Z" transform="translate(-580.135 -388.86)" fill="#193091"/>
          <path id="Caminho_238" data-name="Caminho 238" d="M627.7,446.573H592.374a11.2,11.2,0,0,1-11.194-11.194V400.054a11.2,11.2,0,0,1,11.194-11.194H627.7a11.2,11.2,0,0,1,11.194,11.194v35.325A11.2,11.2,0,0,1,627.7,446.573Z" transform="translate(-581.18 -388.86)" fill="#495ad6"/>
          <path id="Caminho_239" data-name="Caminho 239" d="M614.789,402.31a6.93,6.93,0,1,1-6.93-6.93A6.924,6.924,0,0,1,614.789,402.31Z" transform="translate(-578.998 -388.14)" fill="#fff"/>
          <path id="Caminho_240" data-name="Caminho 240" d="M623.056,424.188v10.239a1.675,1.675,0,0,1-1.677,1.677H595.827a1.683,1.683,0,0,1-1.677-1.677V424.188A14.448,14.448,0,0,1,608.6,409.74h0A14.457,14.457,0,0,1,623.056,424.188Z" transform="translate(-579.747 -386.553)" fill="#fff"/>
        </g>
        <g id="Grupo_66" data-name="Grupo 66" transform="translate(370.752 127.611)">
          <path id="Caminho_241" data-name="Caminho 241" d="M493.387,189.62H470.7a1.7,1.7,0,0,1-1.7-1.71h0a1.709,1.709,0,0,1,1.7-1.71h22.688a1.711,1.711,0,0,1,1.71,1.71h0A1.711,1.711,0,0,1,493.387,189.62Z" transform="translate(-469 -186.2)" fill="#f0f4ff"/>
          <path id="Caminho_242" data-name="Caminho 242" d="M513.2,189.62H496.79a1.711,1.711,0,0,1-1.71-1.71h0a1.711,1.711,0,0,1,1.71-1.71H513.2a1.711,1.711,0,0,1,1.71,1.71h0A1.711,1.711,0,0,1,513.2,189.62Z" transform="translate(-466.118 -186.2)" fill="#f0f4ff"/>
          <path id="Caminho_243" data-name="Caminho 243" d="M480.348,196.37h-9.639a1.7,1.7,0,0,1-1.7-1.71h0a1.709,1.709,0,0,1,1.7-1.71h9.639a1.711,1.711,0,0,1,1.71,1.71h0A1.725,1.725,0,0,1,480.348,196.37Z" transform="translate(-468.999 -185.454)" fill="#f0f4ff"/>
          <path id="Caminho_244" data-name="Caminho 244" d="M514.557,196.37H484.54a1.711,1.711,0,0,1-1.71-1.71h0a1.711,1.711,0,0,1,1.71-1.71h30.017a1.711,1.711,0,0,1,1.71,1.71h0A1.711,1.711,0,0,1,514.557,196.37Z" transform="translate(-467.472 -185.454)" fill="#f0f4ff"/>
          <path id="Caminho_245" data-name="Caminho 245" d="M500.6,203.12H470.7a1.7,1.7,0,0,1-1.7-1.71h0a1.709,1.709,0,0,1,1.7-1.71H500.6a1.711,1.711,0,0,1,1.71,1.71h0A1.711,1.711,0,0,1,500.6,203.12Z" transform="translate(-469 -184.708)" fill="#f0f4ff"/>
          <path id="Caminho_246" data-name="Caminho 246" d="M512.529,203.12H502.89a1.711,1.711,0,0,1-1.71-1.71h0a1.711,1.711,0,0,1,1.71-1.71h9.639a1.711,1.711,0,0,1,1.71,1.71h0A1.711,1.711,0,0,1,512.529,203.12Z" transform="translate(-465.444 -184.708)" fill="#f0f4ff"/>
        </g>
        <g id="Grupo_70" data-name="Grupo 70" transform="translate(24.431 256.685)">
          <path id="Caminho_247" data-name="Caminho 247" d="M240.583,350.892h-79.2a4.242,4.242,0,0,1-4.242-4.242V306.672a4.242,4.242,0,0,1,4.242-4.242h79.2a4.242,4.242,0,0,1,4.242,4.242V346.65A4.242,4.242,0,0,1,240.583,350.892Z" transform="translate(-157.14 -302.43)" fill="#193091"/>
          <line id="Linha_36" data-name="Linha 36" x2="80.234" transform="translate(3.731 6.541)" fill="none" stroke="#fff" stroke-linecap="round" stroke-miterlimit="10" stroke-width="0.896"/>
          <circle id="Elipse_9" data-name="Elipse 9" cx="0.977" cy="0.977" r="0.977" transform="translate(80.867 2.232)" fill="#fff"/>
          <circle id="Elipse_10" data-name="Elipse 10" cx="0.977" cy="0.977" r="0.977" transform="translate(75.803 2.232)" fill="#fff"/>
          <circle id="Elipse_11" data-name="Elipse 11" cx="0.977" cy="0.977" r="0.977" transform="translate(70.728 2.232)" fill="#fff"/>
          <g id="Grupo_69" data-name="Grupo 69" transform="translate(3.72 10.383)">
            <g id="Grupo_67" data-name="Grupo 67">
              <path id="Caminho_248" data-name="Caminho 248" d="M175.448,314.467H161.834a1.341,1.341,0,0,1-1.344-1.344h0a1.341,1.341,0,0,1,1.344-1.344h13.615a1.341,1.341,0,0,1,1.344,1.344h0A1.341,1.341,0,0,1,175.448,314.467Z" transform="translate(-160.49 -311.78)" fill="#6589d1"/>
              <path id="Caminho_249" data-name="Caminho 249" d="M175.448,320.047H161.834a1.341,1.341,0,0,1-1.344-1.344h0a1.341,1.341,0,0,1,1.344-1.344h13.615a1.341,1.341,0,0,1,1.344,1.344h0A1.341,1.341,0,0,1,175.448,320.047Z" transform="translate(-160.49 -311.163)" fill="#6589d1"/>
              <path id="Caminho_250" data-name="Caminho 250" d="M175.448,325.627H161.834a1.341,1.341,0,0,1-1.344-1.344h0a1.341,1.341,0,0,1,1.344-1.344h13.615a1.341,1.341,0,0,1,1.344,1.344h0A1.341,1.341,0,0,1,175.448,325.627Z" transform="translate(-160.49 -310.547)" fill="#6589d1"/>
              <path id="Caminho_251" data-name="Caminho 251" d="M175.448,331.217H161.834a1.341,1.341,0,0,1-1.344-1.344h0a1.341,1.341,0,0,1,1.344-1.344h13.615a1.341,1.341,0,0,1,1.344,1.344h0A1.341,1.341,0,0,1,175.448,331.217Z" transform="translate(-160.49 -309.929)" fill="#6589d1"/>
              <path id="Caminho_252" data-name="Caminho 252" d="M175.448,336.8H161.834a1.341,1.341,0,0,1-1.344-1.344h0a1.341,1.341,0,0,1,1.344-1.344h13.615a1.341,1.341,0,0,1,1.344,1.344h0A1.341,1.341,0,0,1,175.448,336.8Z" transform="translate(-160.49 -309.313)" fill="#6589d1"/>
              <path id="Caminho_253" data-name="Caminho 253" d="M175.448,342.377H161.834a1.341,1.341,0,0,1-1.344-1.344h0a1.341,1.341,0,0,1,1.344-1.344h13.615a1.341,1.341,0,0,1,1.344,1.344h0A1.341,1.341,0,0,1,175.448,342.377Z" transform="translate(-160.49 -308.696)" fill="#6589d1"/>
            </g>
            <g id="Grupo_68" data-name="Grupo 68" transform="translate(18.89)">
              <path id="Caminho_254" data-name="Caminho 254" d="M237.511,314.467H178.844a1.341,1.341,0,0,1-1.344-1.344h0a1.341,1.341,0,0,1,1.344-1.344h58.668a1.341,1.341,0,0,1,1.344,1.344h0A1.341,1.341,0,0,1,237.511,314.467Z" transform="translate(-177.5 -311.78)" fill="#3b5fb7"/>
              <path id="Caminho_255" data-name="Caminho 255" d="M237.511,320.047H178.844A1.341,1.341,0,0,1,177.5,318.7h0a1.341,1.341,0,0,1,1.344-1.344h58.668a1.341,1.341,0,0,1,1.344,1.344h0A1.341,1.341,0,0,1,237.511,320.047Z" transform="translate(-177.5 -311.163)" fill="#3b5fb7"/>
              <path id="Caminho_256" data-name="Caminho 256" d="M237.511,325.627H178.844a1.341,1.341,0,0,1-1.344-1.344h0a1.341,1.341,0,0,1,1.344-1.344h58.668a1.341,1.341,0,0,1,1.344,1.344h0A1.341,1.341,0,0,1,237.511,325.627Z" transform="translate(-177.5 -310.547)" fill="#3b5fb7"/>
              <path id="Caminho_257" data-name="Caminho 257" d="M237.511,331.217H178.844a1.341,1.341,0,0,1-1.344-1.344h0a1.341,1.341,0,0,1,1.344-1.344h58.668a1.341,1.341,0,0,1,1.344,1.344h0A1.341,1.341,0,0,1,237.511,331.217Z" transform="translate(-177.5 -309.929)" fill="#3b5fb7"/>
              <path id="Caminho_258" data-name="Caminho 258" d="M237.511,336.8H178.844a1.341,1.341,0,0,1-1.344-1.344h0a1.341,1.341,0,0,1,1.344-1.344h58.668a1.341,1.341,0,0,1,1.344,1.344h0A1.341,1.341,0,0,1,237.511,336.8Z" transform="translate(-177.5 -309.313)" fill="#3b5fb7"/>
              <path id="Caminho_259" data-name="Caminho 259" d="M237.511,342.377H178.844a1.341,1.341,0,0,1-1.344-1.344h0a1.341,1.341,0,0,1,1.344-1.344h58.668a1.341,1.341,0,0,1,1.344,1.344h0A1.341,1.341,0,0,1,237.511,342.377Z" transform="translate(-177.5 -308.696)" fill="#3b5fb7"/>
            </g>
          </g>
        </g>
        <g id="Grupo_74" data-name="Grupo 74" transform="translate(440.356)">
          <circle id="Elipse_12" data-name="Elipse 12" cx="36.102" cy="36.102" r="36.102" transform="translate(0 70.219) rotate(-76.527)" fill="none" stroke="#dee3fc" stroke-miterlimit="10" stroke-width="0.79"/>
          <circle id="Elipse_13" data-name="Elipse 13" cx="31.383" cy="31.383" r="31.383" transform="translate(2.132 27.553) rotate(-23.866)" fill="#3945ba"/>
          <path id="Caminho_260" data-name="Caminho 260" d="M574.008,110.774a2.854,2.854,0,1,1-2.854-2.854A2.853,2.853,0,0,1,574.008,110.774Z" transform="translate(-527.632 -67.239)" fill="#fff"/>
          <path id="Caminho_261" data-name="Caminho 261" d="M571.63,111.813h0a.88.88,0,0,1-1.211-.344l-9.228-16.646a.88.88,0,0,1,.344-1.21h0a.88.88,0,0,1,1.211.344l9.228,16.646A.885.885,0,0,1,571.63,111.813Z" transform="translate(-528.43 -68.833)" fill="#fff"/>
          <path id="Caminho_262" data-name="Caminho 262" d="M571.3,110.926h0a.905.905,0,0,1,1.266,0l7.985,7.985a.905.905,0,0,1,0,1.266h0a.905.905,0,0,1-1.266,0l-7.985-7.985A.905.905,0,0,1,571.3,110.926Z" transform="translate(-527.329 -66.935)" fill="#fff"/>
          <g id="Grupo_71" data-name="Grupo 71" transform="translate(14.794 14.817)">
            <line id="Linha_37" data-name="Linha 37" y1="3.609" transform="translate(28.917)" fill="none" stroke="#fff" stroke-linecap="round" stroke-miterlimit="10" stroke-width="2"/>
            <line id="Linha_38" data-name="Linha 38" x2="3.609" transform="translate(53.837 28.917)" fill="none" stroke="#fff" stroke-linecap="round" stroke-miterlimit="10" stroke-width="2"/>
            <line id="Linha_39" data-name="Linha 39" y2="3.609" transform="translate(28.529 53.837)" fill="none" stroke="#fff" stroke-linecap="round" stroke-miterlimit="10" stroke-width="2"/>
            <line id="Linha_40" data-name="Linha 40" x1="3.609" transform="translate(0 28.529)" fill="none" stroke="#fff" stroke-linecap="round" stroke-miterlimit="10" stroke-width="2"/>
          </g>
          <g id="Grupo_72" data-name="Grupo 72" transform="translate(18.536 18.56)" opacity="0.5">
            <line id="Linha_41" data-name="Linha 41" x1="1.81" y1="3.132" transform="translate(10.783)" fill="none" stroke="#dee3fc" stroke-linecap="round" stroke-miterlimit="10" stroke-width="1"/>
            <line id="Linha_42" data-name="Linha 42" y1="1.799" x2="3.132" transform="translate(46.83 10.783)" fill="none" stroke="#dee3fc" stroke-linecap="round" stroke-miterlimit="10" stroke-width="1"/>
            <line id="Linha_43" data-name="Linha 43" x2="1.799" y2="3.132" transform="translate(37.38 46.83)" fill="none" stroke="#dee3fc" stroke-linecap="round" stroke-miterlimit="10" stroke-width="1"/>
            <line id="Linha_44" data-name="Linha 44" x1="3.132" y2="1.81" transform="translate(0 37.368)" fill="none" stroke="#dee3fc" stroke-linecap="round" stroke-miterlimit="10" stroke-width="1"/>
          </g>
          <g id="Grupo_73" data-name="Grupo 73" transform="translate(18.736 18.76)" opacity="0.5">
            <line id="Linha_45" data-name="Linha 45" x1="3.121" y1="1.81" transform="translate(0 10.25)" fill="none" stroke="#dee3fc" stroke-linecap="round" stroke-miterlimit="10" stroke-width="1"/>
            <line id="Linha_46" data-name="Linha 46" y1="3.121" x2="1.81" transform="translate(37.502)" fill="none" stroke="#dee3fc" stroke-linecap="round" stroke-miterlimit="10" stroke-width="1"/>
            <line id="Linha_47" data-name="Linha 47" x2="3.121" y2="1.81" transform="translate(46.441 37.502)" fill="none" stroke="#dee3fc" stroke-linecap="round" stroke-miterlimit="10" stroke-width="1"/>
            <line id="Linha_48" data-name="Linha 48" x1="1.81" y2="3.121" transform="translate(10.25 46.441)" fill="none" stroke="#dee3fc" stroke-linecap="round" stroke-miterlimit="10" stroke-width="1"/>
          </g>
        </g>
        <g id="Grupo_77" data-name="Grupo 77" transform="translate(0 159.027)">
          <path id="Caminho_263" data-name="Caminho 263" d="M189.662,280.14H150.018a10.628,10.628,0,0,1-10.628-10.628V229.867a10.628,10.628,0,0,1,10.628-10.628h39.645a10.628,10.628,0,0,1,10.627,10.628v39.645A10.635,10.635,0,0,1,189.662,280.14Z" transform="translate(-134.67 -213.965)" fill="#193091"/>
          <path id="Caminho_264" data-name="Caminho 264" d="M187.522,275.39H143.658a8.519,8.519,0,0,1-8.518-8.518V223.008a8.519,8.519,0,0,1,8.518-8.518h43.865a8.519,8.519,0,0,1,8.518,8.518v43.865A8.519,8.519,0,0,1,187.522,275.39Z" transform="translate(-135.14 -214.49)" fill="#7e89fd" stroke="#dee3fc" stroke-miterlimit="10" stroke-width="1"/>
          <g id="Grupo_76" data-name="Grupo 76" transform="translate(16.924 9.606)">
            <g id="Grupo_75" data-name="Grupo 75" transform="translate(0.011)">
              <path id="Caminho_265" data-name="Caminho 265" d="M174.455,237.01h-.322v-3.487a10.383,10.383,0,0,0-20.766,0v3.487H153.3a2.905,2.905,0,0,0-2.909,2.91v13.148a2.905,2.905,0,0,0,2.909,2.909h21.155a2.905,2.905,0,0,0,2.91-2.909V239.92A2.92,2.92,0,0,0,174.455,237.01ZM156,233.523a7.751,7.751,0,0,1,15.5,0v3.487H156v-3.487Z" transform="translate(-150.39 -223.14)" fill="#dee3fc"/>
              <path id="Caminho_266" data-name="Caminho 266" d="M166.284,242.057a3.388,3.388,0,1,0-5.1,2.921.618.618,0,0,1,.311.677l-.589,2.177a2.036,2.036,0,1,0,3.931,0l-.577-2.154a.611.611,0,0,1,.311-.689A3.366,3.366,0,0,0,166.284,242.057Z" transform="translate(-149.382 -221.424)" fill="#7e89fd"/>
            </g>
            <path id="Caminho_267" data-name="Caminho 267" d="M176.11,257.12H151.635a1.254,1.254,0,0,1-1.255-1.255h0a1.254,1.254,0,0,1,1.255-1.255H176.11a1.254,1.254,0,0,1,1.255,1.255h0A1.254,1.254,0,0,1,176.11,257.12Z" transform="translate(-150.38 -219.662)" fill="#dee3fc"/>
            <path id="Caminho_268" data-name="Caminho 268" d="M176.11,260.93H151.635a1.254,1.254,0,0,1-1.255-1.255h0a1.254,1.254,0,0,1,1.255-1.255H176.11a1.254,1.254,0,0,1,1.255,1.255h0A1.247,1.247,0,0,1,176.11,260.93Z" transform="translate(-150.38 -219.242)" fill="#dee3fc"/>
          </g>
        </g>
        <g id="Grupo_84" data-name="Grupo 84" transform="translate(502.269 257.84)">
          <g id="Grupo_78" data-name="Grupo 78">
            <path id="Caminho_269" data-name="Caminho 269" d="M619.514,342.1H596.182a6.251,6.251,0,0,1-6.252-6.252V312.512a6.251,6.251,0,0,1,6.252-6.252h23.332a6.251,6.251,0,0,1,6.252,6.252v23.332A6.244,6.244,0,0,1,619.514,342.1Z" transform="translate(-587.154 -303.162)" fill="#193091"/>
            <path id="Caminho_270" data-name="Caminho 270" d="M618.258,339.306H592.438a5.01,5.01,0,0,1-5.008-5.008V308.478a5.01,5.01,0,0,1,5.008-5.008h25.819a5.01,5.01,0,0,1,5.008,5.008V334.3A5.017,5.017,0,0,1,618.258,339.306Z" transform="translate(-587.43 -303.47)" fill="#7e89fd" stroke="#dee3fc" stroke-miterlimit="10" stroke-width="1"/>
          </g>
          <g id="Grupo_83" data-name="Grupo 83" transform="translate(7.207 7.21)">
            <g id="Grupo_79" data-name="Grupo 79" transform="translate(2.357)">
              <path id="Caminho_271" data-name="Caminho 271" d="M597.15,331.37a.936.936,0,0,1-.3-.044,1.107,1.107,0,0,1-.766-1.366L601.5,310.77a1.107,1.107,0,1,1,2.132.6l-5.419,19.19A1.1,1.1,0,0,1,597.15,331.37Z" transform="translate(-596.042 -309.962)" fill="#fff"/>
            </g>
            <g id="Grupo_80" data-name="Grupo 80" transform="translate(11.43)">
              <path id="Caminho_272" data-name="Caminho 272" d="M605.32,331.37a.935.935,0,0,1-.3-.044,1.107,1.107,0,0,1-.766-1.366l5.419-19.189a1.107,1.107,0,1,1,2.132.6l-5.419,19.189A1.123,1.123,0,0,1,605.32,331.37Z" transform="translate(-604.212 -309.962)" fill="#fff"/>
            </g>
            <g id="Grupo_81" data-name="Grupo 81" transform="translate(0 5.239)">
              <path id="Caminho_273" data-name="Caminho 273" d="M614.22,316.9H595.03a1.111,1.111,0,0,1,0-2.221h19.19a1.111,1.111,0,0,1,0,2.221Z" transform="translate(-593.92 -314.68)" fill="#fff"/>
            </g>
            <g id="Grupo_82" data-name="Grupo 82" transform="translate(0 14.001)">
              <path id="Caminho_274" data-name="Caminho 274" d="M614.22,324.791H595.03a1.111,1.111,0,0,1,0-2.221h19.19a1.114,1.114,0,0,1,1.11,1.111A1.1,1.1,0,0,1,614.22,324.791Z" transform="translate(-593.92 -322.57)" fill="#fff"/>
            </g>
          </g>
        </g>
        <g id="Grupo_85" data-name="Grupo 85" transform="translate(86.464 179.86)">
          <path id="Caminho_275" data-name="Caminho 275" d="M228.4,236.293H214.521A1.517,1.517,0,0,1,213,234.771h0a1.517,1.517,0,0,1,1.521-1.521H228.4a1.517,1.517,0,0,1,1.521,1.521h0A1.517,1.517,0,0,1,228.4,236.293Z" transform="translate(-213 -233.25)" fill="#f0f4ff"/>
          <path id="Caminho_276" data-name="Caminho 276" d="M242.384,242.373H214.521A1.517,1.517,0,0,1,213,240.851h0a1.517,1.517,0,0,1,1.521-1.521h27.862a1.517,1.517,0,0,1,1.521,1.521h0A1.517,1.517,0,0,1,242.384,242.373Z" transform="translate(-213 -232.578)" fill="#f0f4ff"/>
          <path id="Caminho_277" data-name="Caminho 277" d="M217.818,248.463h-3.287a1.517,1.517,0,0,1-1.521-1.521h0a1.517,1.517,0,0,1,1.521-1.521h3.287a1.517,1.517,0,0,1,1.521,1.521h0A1.531,1.531,0,0,1,217.818,248.463Z" transform="translate(-212.999 -231.905)" fill="#f0f4ff"/>
          <path id="Caminho_278" data-name="Caminho 278" d="M241.542,248.463h-19.4a1.517,1.517,0,0,1-1.521-1.521h0a1.517,1.517,0,0,1,1.521-1.521h19.4a1.517,1.517,0,0,1,1.521,1.521h0A1.524,1.524,0,0,1,241.542,248.463Z" transform="translate(-212.158 -231.905)" fill="#f0f4ff"/>
          <path id="Caminho_279" data-name="Caminho 279" d="M240.449,236.293h-8.418a1.517,1.517,0,0,1-1.521-1.521h0a1.517,1.517,0,0,1,1.521-1.521h8.418a1.517,1.517,0,0,1,1.521,1.521h0A1.517,1.517,0,0,1,240.449,236.293Z" transform="translate(-211.065 -233.25)" fill="#f0f4ff"/>
        </g>
        <path id="Caminho_280" data-name="Caminho 280" d="M172.461,423.7a9.738,9.738,0,0,0-4.953,1.355,10.383,10.383,0,0,0-20.7,1.177,9.409,9.409,0,0,0,.067,1.133,7.931,7.931,0,1,0-1.466,15.725H172.45a9.695,9.695,0,0,0,.011-19.389Z" transform="translate(-134.881 -33.212)" fill="#fff"/>
      </g>
      <g id="Grupo_89" data-name="Grupo 89" transform="translate(29.828 290.499)">
        <path id="Caminho_281" data-name="Caminho 281" d="M109.683,391.248a10.272,10.272,0,0,1,.133-4.353,43.191,43.191,0,0,0-.489-23.476c-5.186-16.2-26.208-30.539-26.208-30.539s5.708,23.9,10.394,34.081c3.431,7.451,9.439,15.936,12.782,20.4a10.057,10.057,0,0,1,1.832,4.187,174.273,174.273,0,0,1,2.9,33.593l1.577.067A173.821,173.821,0,0,0,109.683,391.248Z" transform="translate(-76.046 -332.88)" fill="#dee3fc"/>
        <path id="Caminho_282" data-name="Caminho 282" d="M123.6,374.592a189.318,189.318,0,0,0,6.119-28.762s-18.845,15.558-20.4,27.585a40.477,40.477,0,0,0,1.288,16.769,11.49,11.49,0,0,1,.444,4.553,159.587,159.587,0,0,0-.389,31.494l1.421-.167A157.217,157.217,0,0,1,112.3,396.5a11.774,11.774,0,0,1,2.6-6.252A49.217,49.217,0,0,0,123.6,374.592Z" transform="translate(-73.19 -331.449)" fill="#b4c1ef"/>
        <path id="Caminho_283" data-name="Caminho 283" d="M142.464,345.28s-20.311,7.54-25.619,24.12a44.227,44.227,0,0,0-.444,24.253,8.391,8.391,0,0,1,0,4.131c-4.753,19.09-4.831,38.845-4.831,39.1h1.621a185.26,185.26,0,0,1,4.664-38.257,14.282,14.282,0,0,1,2.41-5.142c3.465-4.664,9.362-13.059,12.771-20.467C137.844,362.6,142.464,345.28,142.464,345.28Z" transform="translate(-72.902 -331.51)" fill="#dee3fc"/>
        <path id="Caminho_284" data-name="Caminho 284" d="M110.476,414.1a56.612,56.612,0,0,0-4.686-18.434,6.358,6.358,0,0,1-.478-3.331,30.3,30.3,0,0,0-.478-9.917c-1.644-8.14-12.449-25.719-28.085-26.752a113.579,113.579,0,0,1,8.173,15.936c3.509,9.184,8.529,18.79,16.846,22.477a6.24,6.24,0,0,1,3.22,3.343,54.7,54.7,0,0,1,4.064,16.791Z" transform="translate(-76.75 -330.362)" fill="#b4c1ef"/>
        <g id="Grupo_88" data-name="Grupo 88" transform="translate(16.417 74.981)">
          <g id="Grupo_87" data-name="Grupo 87">
            <path id="Caminho_285" data-name="Caminho 285" d="M98.27,444.776h25.808l6.7-40.922a2.97,2.97,0,0,0-2.932-3.454H94.506a2.97,2.97,0,0,0-2.932,3.454Z" transform="translate(-91.533 -400.4)" fill="#dee3fc"/>
          </g>
        </g>
      </g>
      <line id="Linha_49" data-name="Linha 49" x2="722.07" transform="translate(0 409.856)" fill="none" stroke="#fff" stroke-linecap="round" stroke-miterlimit="10" stroke-width="1.114"/>
    </g>
  </g>
</svg>
